0, 0, Header, 1, 8, 480
1, 0, Start_track
1, 0, Title_t, "Fantasie Nr. 6, Opus 116"
1, 0, Title_t, "Intermezzo"
1, 0, Copyright_t, "Copyright © 1999 by Krüger http://www.piano-midi.de"
1, 0, Text_t, "Johannes Brahms"
1, 0, Text_t, "Andantino temperamente"
1, 0, Text_t, "Fertiggestellt am 28.1.99\012"
1, 0, Text_t, "Update am 12.9.99\012"
1, 0, Text_t, "Update am 19.5.2002\012"
1, 0, Text_t, "Normierung: 23.12.2002\012"
1, 0, Text_t, "Update am 31.10.2010\012"
1, 0, Text_t, "Dauer: 2:23 Minuten\012"
1, 0, SMPTE_offset, 96, 0, 3, 0, 0
1, 0, Time_signature, 3, 2, 24, 8
1, 0, Key_signature, 4, "major"
1, 0, Tempo, 763942
1, 0, Marker_t, "Andantino teneramente"
1, 956, Tempo, 669344
1, 960, Tempo, 669344
1, 1440, Tempo, 657823
1, 1920, Tempo, 637213
1, 2400, Tempo, 645161
1, 2880, Tempo, 648649
1, 3120, Tempo, 621762
1, 3360, Tempo, 628272
1, 3400, Tempo, 631579
1, 3600, Tempo, 646761
1, 3840, Tempo, 635930
1, 4320, Tempo, 632444
1, 4800, Tempo, 618748
1, 5280, Tempo, 628272
1, 5760, Tempo, 621762
1, 6000, Tempo, 615385
1, 6240, Tempo, 618557
1, 6480, Tempo, 665484
1, 6720, Tempo, 634921
1, 7200, Tempo, 628931
1, 7680, Tempo, 622084
1, 8160, Tempo, 625000
1, 8400, Tempo, 621762
1, 8640, Tempo, 621762
1, 8880, Tempo, 612245
1, 9120, Tempo, 628272
1, 9360, Tempo, 632444
1, 9600, Tempo, 661594
1, 10080, Tempo, 733765
1, 10560, Tempo, 817661
1, 11040, Tempo, 946074
1, 11520, Tempo, 1122125
1, 12000, Tempo, 2609830
1, 12480, Tempo, 645369
1, 13440, Tempo, 660866
1, 13920, Tempo, 634921
1, 14160, Tempo, 655738
1, 14400, Tempo, 638298
1, 14640, Tempo, 659341
1, 14880, Tempo, 655738
1, 15120, Tempo, 668896
1, 15360, Tempo, 645369
1, 16800, Tempo, 641711
1, 17040, Tempo, 659341
1, 17280, Tempo, 638298
1, 17520, Tempo, 659341
1, 17760, Tempo, 653097
1, 18240, Tempo, 672948
1, 19200, Tempo, 740649
1, 19680, Tempo, 857265
1, 20160, Tempo, 1052816
1, 20640, Tempo, 2069679
1, 21080, Tempo, 1308044
1, 21120, Tempo, 635930
1, 21600, Tempo, 632444
1, 22080, Tempo, 618748
1, 22560, Tempo, 628272
1, 23040, Tempo, 638298
1, 23280, Tempo, 625000
1, 23520, Tempo, 631579
1, 23760, Tempo, 665484
1, 24000, Tempo, 634921
1, 24480, Tempo, 628931
1, 24960, Tempo, 622084
1, 25440, Tempo, 625000
1, 25680, Tempo, 621762
1, 25920, Tempo, 625000
1, 26400, Tempo, 628272
1, 26640, Tempo, 632444
1, 27840, Tempo, 592710
1, 28320, Tempo, 625261
1, 29280, Tempo, 669344
1, 29760, Tempo, 715649
1, 30240, Tempo, 729483
1, 30720, Tempo, 743771
1, 31200, Tempo, 824629
1, 31680, Tempo, 989609
1, 32040, Tempo, 1559252
1, 32041, Tempo, 1440576
1, 32100, Tempo, 1813237
1, 32160, Tempo, 827929
1, 33600, Tempo, 720202
1, 35520, Tempo, 628272
1, 35680, Tempo, 618557
1, 35840, Tempo, 615385
1, 36000, Key_signature, 5, "major"
1, 36000, Tempo, 614880
1, 36160, Tempo, 607780
1, 36480, Tempo, 614880
1, 36640, Tempo, 600841
1, 36800, Tempo, 590726
1, 36960, Tempo, 614880
1, 37120, Tempo, 604290
1, 37440, Tempo, 614880
1, 37600, Tempo, 604290
1, 37760, Tempo, 629591
1, 37920, Tempo, 655738
1, 38160, Tempo, 628272
1, 38400, Tempo, 612245
1, 38560, Tempo, 604290
1, 38720, Tempo, 621762
1, 38880, Tempo, 652174
1, 39120, Tempo, 625000
1, 39360, Tempo, 612245
1, 39540, Tempo, 604290
1, 39660, Tempo, 645161
1, 39680, Tempo, 674157
1, 39840, Tempo, 689655
1, 40080, Tempo, 674157
1, 40320, Tempo, 641711
1, 40480, Tempo, 659341
1, 40640, Tempo, 685714
1, 40960, Tempo, 666667
1, 41120, Tempo, 685714
1, 41280, Tempo, 655738
1, 41440, Tempo, 638298
1, 41600, Tempo, 648649
1, 41760, Tempo, 614880
1, 41920, Tempo, 607780
1, 42240, Tempo, 614880
1, 42400, Tempo, 600841
1, 42560, Tempo, 590726
1, 42720, Tempo, 614880
1, 42880, Tempo, 604290
1, 43200, Tempo, 614880
1, 43360, Tempo, 604290
1, 43520, Tempo, 629591
1, 43680, Tempo, 659341
1, 43900, Tempo, 638298
1, 44160, Tempo, 625000
1, 44320, Tempo, 615385
1, 44480, Tempo, 641711
1, 44640, Tempo, 685714
1, 44880, Tempo, 652174
1, 45120, Tempo, 638298
1, 45440, Tempo, 666667
1, 45600, Tempo, 652174
1, 45920, Tempo, 681818
1, 46400, Tempo, 689655
1, 46560, Tempo, 779221
1, 46720, Tempo, 816327
1, 46880, Tempo, 895522
1, 47040, Tempo, 686342
1, 47200, Tempo, 673250
1, 47360, Tempo, 695410
1, 47520, Tempo, 673250
1, 47680, Tempo, 660647
1, 47840, Tempo, 695410
1, 48000, Tempo, 645161
1, 48160, Tempo, 631579
1, 48480, Tempo, 641711
1, 48640, Tempo, 631579
1, 48960, Tempo, 632911
1, 49280, Tempo, 652458
1, 49440, Tempo, 693642
1, 49680, Tempo, 670391
1, 49920, Tempo, 632911
1, 50240, Tempo, 652458
1, 50400, Tempo, 701754
1, 50640, Tempo, 681818
1, 50880, Tempo, 640615
1, 51441, Tempo, 727273
1, 52000, Tempo, 710059
1, 52160, Tempo, 722892
1, 52320, Tempo, 685714
1, 52480, Tempo, 666667
1, 52640, Tempo, 685714
1, 52800, Tempo, 666667
1, 52960, Tempo, 652174
1, 53120, Tempo, 670391
1, 53280, Tempo, 628338
1, 53440, Tempo, 621118
1, 53760, Tempo, 628338
1, 53920, Tempo, 613999
1, 54080, Tempo, 603682
1, 54240, Tempo, 628338
1, 54400, Tempo, 617538
1, 54720, Tempo, 628338
1, 54880, Tempo, 617538
1, 55040, Tempo, 643432
1, 55200, Tempo, 673779
1, 55201, Tempo, 659341
1, 55440, Tempo, 641711
1, 55680, Tempo, 625000
1, 55840, Tempo, 625000
1, 56160, Tempo, 648649
1, 56400, Tempo, 641711
1, 56640, Tempo, 645161
1, 57120, Tempo, 693642
1, 57360, Tempo, 670391
1, 57600, Tempo, 685714
1, 57920, Tempo, 731707
1, 58080, Tempo, 710059
1, 58880, Tempo, 727273
1, 59520, Tempo, 740741
1, 59680, Tempo, 718563
1, 60000, Tempo, 740741
1, 60480, Tempo, 816327
1, 60640, Tempo, 869565
1, 60800, Tempo, 1212121
1, 60900, Tempo, 1578947
1, 60960, Tempo, 2400960
1, 61440, Tempo, 669344
1, 61920, Key_signature, 4, "major"
1, 61920, Tempo, 657823
1, 62400, Tempo, 637213
1, 62880, Tempo, 645161
1, 63360, Tempo, 655738
1, 63600, Tempo, 625000
1, 63840, Tempo, 625000
1, 64080, Tempo, 646761
1, 64320, Tempo, 635930
1, 64800, Tempo, 632444
1, 65280, Tempo, 618748
1, 65760, Tempo, 628272
1, 66240, Tempo, 621762
1, 66720, Tempo, 631579
1, 66960, Tempo, 665484
1, 67200, Tempo, 634921
1, 67680, Tempo, 628931
1, 68160, Tempo, 622084
1, 68640, Tempo, 625000
1, 68880, Tempo, 621762
1, 69120, Tempo, 625000
1, 69600, Tempo, 628272
1, 69840, Tempo, 632444
1, 70560, Tempo, 621762
1, 71520, Tempo, 612245
1, 71760, Tempo, 631579
1, 72000, Tempo, 618557
1, 72960, Tempo, 631579
1, 73440, Tempo, 621762
1, 73920, Tempo, 634921
1, 74400, Tempo, 631579
1, 74640, Tempo, 621762
1, 74880, Tempo, 618557
1, 76080, Tempo, 631579
1, 76320, Tempo, 618557
1, 77280, Tempo, 652245
1, 77520, Tempo, 714371
1, 77760, Tempo, 731797
1, 78000, Tempo, 779322
1, 78240, Tempo, 810920
1, 78300, Tempo, 800107
1, 78720, Tempo, 705965
1, 79200, Tempo, 729483
1, 79680, Tempo, 743771
1, 80160, Tempo, 824629
1, 80640, Tempo, 989609
1, 81120, Tempo, 888889
1, 82560, Tempo, 720202
1, 83040, Tempo, 655738
1, 83360, Tempo, 670391
1, 83520, Tempo, 655738
1, 83840, Tempo, 677966
1, 84000, Tempo, 652174
1, 84320, Tempo, 674157
1, 84480, Tempo, 652174
1, 84800, Tempo, 670391
1, 84960, Tempo, 685714
1, 85200, Tempo, 736196
1, 85440, Tempo, 714286
1, 85920, Tempo, 727273
1, 86160, Tempo, 745342
1, 86340, Tempo, 909091
1, 86400, Tempo, 740741
1, 86880, Tempo, 759494
1, 87120, Tempo, 839161
1, 87360, Tempo, 789474
1, 88320, Tempo, 845189
1, 88800, Tempo, 909229
1, 89280, Tempo, 833333
1, 89520, Tempo, 800000
1, 89760, Tempo, 779221
1, 90000, Tempo, 764331
1, 90240, Tempo, 764331
1, 90720, Tempo, 769231
1, 90840, Tempo, 774194
1, 90960, Tempo, 779221
1, 91080, Tempo, 784314
1, 91160, Tempo, 789474
1, 91280, Tempo, 794702
1, 91400, Tempo, 800000
1, 91520, Tempo, 805369
1, 91600, Tempo, 810811
1, 91640, Tempo, 805369
1, 91680, Tempo, 851064
1, 91920, Tempo, 930233
1, 92160, Tempo, 975610
1, 92180, Tempo, 983607
1, 92200, Tempo, 1000000
1, 92220, Tempo, 1016949
1, 92240, Tempo, 1034483
1, 92260, Tempo, 1052632
1, 92280, Tempo, 1071429
1, 92300, Tempo, 1090909
1, 92320, Tempo, 1111111
1, 92340, Tempo, 1132075
1, 92359, Tempo, 1132289
1, 92379, Tempo, 1176701
1, 92399, Tempo, 1224740
1, 92410, Tempo, 1224740
1, 92420, Tempo, 1250260
1, 92430, Tempo, 1304631
1, 92440, Tempo, 1333630
1, 92450, Tempo, 1395673
1, 92460, Tempo, 1428912
1, 92470, Tempo, 1500375
1, 92480, Tempo, 1538856
1, 92490, Tempo, 1622060
1, 92500, Tempo, 1667130
1, 92509, Tempo, 1714776
1, 92535, Tempo, 1765225
1, 92547, Tempo, 1818733
1, 92560, Tempo, 1875586
1, 92572, Tempo, 1936108
1, 92580, Tempo, 983768
1, 93600, Marker_t, "Fine"
1, 93600, End_track
2, 0, Start_track
2, 0, Title_t, "Piano right"
2, 0, Program_c, 0, 0
2, 0, Control_c, 0, 7, 100
2, 0, Control_c, 0, 10, 64
2, 0, Control_c, 0, 64, 0
2, 0, Control_c, 0, 91, 127
2, 0, Text_t, "bdca426d104a26ac9dcb070447587523"
2, 956, Control_c, 0, 91, 127
2, 960, Note_on_c, 0, 71, 53
2, 960, Note_on_c, 0, 59, 44
2, 960, Note_on_c, 0, 68, 44
2, 1440, Note_on_c, 0, 68, 0
2, 1440, Note_on_c, 0, 59, 0
2, 1440, Note_on_c, 0, 71, 0
2, 1440, Note_on_c, 0, 60, 41
2, 1440, Note_on_c, 0, 68, 41
2, 1440, Note_on_c, 0, 71, 49
2, 1920, Note_on_c, 0, 71, 0
2, 1920, Note_on_c, 0, 68, 0
2, 1920, Note_on_c, 0, 60, 0
2, 1920, Note_on_c, 0, 61, 36
2, 1920, Note_on_c, 0, 66, 36
2, 1920, Note_on_c, 0, 69, 44
2, 2400, Note_on_c, 0, 69, 0
2, 2400, Note_on_c, 0, 66, 0
2, 2400, Note_on_c, 0, 61, 0
2, 2400, Note_on_c, 0, 66, 36
2, 2400, Note_on_c, 0, 62, 43
2, 2400, Note_on_c, 0, 69, 36
2, 2640, Note_on_c, 0, 62, 0
2, 2640, Note_on_c, 0, 63, 46
2, 2880, Note_on_c, 0, 63, 0
2, 2880, Note_on_c, 0, 69, 0
2, 2880, Note_on_c, 0, 66, 0
2, 2880, Note_on_c, 0, 69, 29
2, 2880, Note_on_c, 0, 66, 49
2, 3120, Note_on_c, 0, 66, 0
2, 3120, Note_on_c, 0, 64, 36
2, 3360, Note_on_c, 0, 64, 0
2, 3360, Note_on_c, 0, 69, 0
2, 3360, Note_on_c, 0, 68, 38
2, 3360, Note_on_c, 0, 59, 42
2, 3600, Note_on_c, 0, 59, 0
2, 3600, Note_on_c, 0, 56, 36
2, 3820, Note_on_c, 0, 56, 0
2, 3820, Note_on_c, 0, 68, 0
2, 3840, Note_on_c, 0, 56, 39
2, 3840, Note_on_c, 0, 64, 39
2, 3840, Note_on_c, 0, 68, 48
2, 4320, Note_on_c, 0, 68, 0
2, 4320, Note_on_c, 0, 64, 0
2, 4320, Note_on_c, 0, 56, 0
2, 4320, Note_on_c, 0, 68, 46
2, 4320, Note_on_c, 0, 57, 39
2, 4320, Note_on_c, 0, 64, 39
2, 4800, Note_on_c, 0, 64, 0
2, 4800, Note_on_c, 0, 57, 0
2, 4800, Note_on_c, 0, 68, 0
2, 4800, Note_on_c, 0, 58, 39
2, 4800, Note_on_c, 0, 64, 39
2, 4800, Note_on_c, 0, 66, 46
2, 5280, Note_on_c, 0, 66, 0
2, 5280, Note_on_c, 0, 64, 0
2, 5280, Note_on_c, 0, 58, 0
2, 5280, Note_on_c, 0, 64, 37
2, 5280, Note_on_c, 0, 65, 45
2, 5280, Note_on_c, 0, 58, 30
2, 5520, Note_on_c, 0, 65, 0
2, 5520, Note_on_c, 0, 66, 47
2, 5760, Note_on_c, 0, 66, 0
2, 5760, Note_on_c, 0, 58, 0
2, 5760, Note_on_c, 0, 64, 0
2, 5760, Note_on_c, 0, 69, 48
2, 5760, Note_on_c, 0, 63, 36
2, 5760, Note_on_c, 0, 57, 26
2, 6000, Note_on_c, 0, 69, 0
2, 6000, Note_on_c, 0, 66, 44
2, 6240, Note_on_c, 0, 66, 0
2, 6240, Note_on_c, 0, 57, 0
2, 6240, Note_on_c, 0, 63, 0
2, 6240, Note_on_c, 0, 57, 45
2, 6240, Note_on_c, 0, 64, 45
2, 6480, Note_on_c, 0, 64, 0
2, 6480, Note_on_c, 0, 63, 38
2, 6700, Note_on_c, 0, 63, 0
2, 6700, Note_on_c, 0, 57, 0
2, 6720, Note_on_c, 0, 73, 57
2, 6720, Note_on_c, 0, 61, 48
2, 6720, Note_on_c, 0, 69, 48
2, 7200, Note_on_c, 0, 69, 0
2, 7200, Note_on_c, 0, 61, 0
2, 7200, Note_on_c, 0, 73, 0
2, 7200, Note_on_c, 0, 62, 48
2, 7200, Note_on_c, 0, 69, 48
2, 7200, Note_on_c, 0, 73, 57
2, 7680, Note_on_c, 0, 73, 0
2, 7680, Note_on_c, 0, 69, 0
2, 7680, Note_on_c, 0, 62, 0
2, 7680, Note_on_c, 0, 69, 47
2, 7680, Note_on_c, 0, 63, 47
2, 7680, Note_on_c, 0, 71, 56
2, 8160, Note_on_c, 0, 71, 0
2, 8160, Note_on_c, 0, 63, 0
2, 8160, Note_on_c, 0, 69, 0
2, 8160, Note_on_c, 0, 68, 44
2, 8160, Note_on_c, 0, 64, 53
2, 8160, Note_on_c, 0, 71, 44
2, 8400, Note_on_c, 0, 65, 53
2, 8440, Note_on_c, 0, 64, 0
2, 8640, Note_on_c, 0, 68, 0
2, 8640, Note_on_c, 0, 71, 0
2, 8640, Note_on_c, 0, 65, 0
2, 8640, Note_on_c, 0, 68, 55
2, 8640, Note_on_c, 0, 71, 50
2, 8880, Note_on_c, 0, 68, 0
2, 8880, Note_on_c, 0, 66, 45
2, 9120, Note_on_c, 0, 66, 0
2, 9120, Note_on_c, 0, 71, 0
2, 9120, Note_on_c, 0, 69, 46
2, 9120, Note_on_c, 0, 61, 49
2, 9360, Note_on_c, 0, 61, 0
2, 9360, Note_on_c, 0, 57, 44
2, 9580, Note_on_c, 0, 57, 0
2, 9580, Note_on_c, 0, 69, 0
2, 9600, Note_on_c, 0, 66, 41
2, 9600, Note_on_c, 0, 60, 41
2, 9600, Note_on_c, 0, 69, 49
2, 10080, Note_on_c, 0, 69, 0
2, 10080, Note_on_c, 0, 60, 0
2, 10080, Note_on_c, 0, 66, 0
2, 10080, Note_on_c, 0, 66, 36
2, 10080, Note_on_c, 0, 59, 36
2, 10080, Note_on_c, 0, 69, 44
2, 10560, Note_on_c, 0, 69, 0
2, 10560, Note_on_c, 0, 59, 0
2, 10560, Note_on_c, 0, 66, 0
2, 10560, Note_on_c, 0, 66, 37
2, 10560, Note_on_c, 0, 68, 46
2, 10560, Note_on_c, 0, 60, 37
2, 11040, Note_on_c, 0, 60, 0
2, 11040, Note_on_c, 0, 68, 0
2, 11040, Note_on_c, 0, 66, 0
2, 11040, Note_on_c, 0, 61, 39
2, 11040, Note_on_c, 0, 64, 39
2, 11040, Note_on_c, 0, 68, 47
2, 11520, Note_on_c, 0, 64, 0
2, 11520, Note_on_c, 0, 61, 0
2, 11520, Note_on_c, 0, 63, 36
2, 11520, Note_on_c, 0, 56, 36
2, 11520, Note_on_c, 0, 60, 36
2, 12000, Note_on_c, 0, 60, 0
2, 12000, Note_on_c, 0, 68, 0
2, 12000, Note_on_c, 0, 63, 0
2, 12000, Note_on_c, 0, 56, 0
2, 12000, Note_on_c, 0, 56, 34
2, 12000, Note_on_c, 0, 61, 34
2, 12000, Note_on_c, 0, 65, 40
2, 12000, Note_on_c, 0, 68, 40
2, 12450, Note_on_c, 0, 68, 0
2, 12450, Note_on_c, 0, 56, 0
2, 12450, Note_on_c, 0, 61, 0
2, 12450, Note_on_c, 0, 65, 0
2, 12480, Note_on_c, 0, 80, 44
2, 12480, Note_on_c, 0, 68, 36
2, 12480, Note_on_c, 0, 73, 36
2, 12960, Note_on_c, 0, 73, 0
2, 12960, Note_on_c, 0, 68, 0
2, 12960, Note_on_c, 0, 72, 39
2, 12960, Note_on_c, 0, 68, 39
2, 12960, Note_on_c, 0, 75, 39
2, 13440, Note_on_c, 0, 75, 0
2, 13440, Note_on_c, 0, 80, 0
2, 13440, Note_on_c, 0, 72, 0
2, 13440, Note_on_c, 0, 68, 0
2, 13440, Note_on_c, 0, 68, 37
2, 13440, Note_on_c, 0, 73, 37
2, 13440, Note_on_c, 0, 77, 46
2, 13440, Note_on_c, 0, 80, 46
2, 13920, Note_on_c, 0, 80, 0
2, 13920, Note_on_c, 0, 68, 0
2, 13920, Note_on_c, 0, 73, 0
2, 13920, Note_on_c, 0, 77, 0
2, 13920, Note_on_c, 0, 70, 39
2, 13920, Note_on_c, 0, 78, 53
2, 13920, Note_on_c, 0, 82, 39
2, 14160, Note_on_c, 0, 73, 49
2, 14180, Note_on_c, 0, 78, 0
2, 14400, Note_on_c, 0, 70, 0
2, 14400, Note_on_c, 0, 82, 0
2, 14400, Note_on_c, 0, 73, 0
2, 14400, Note_on_c, 0, 68, 36
2, 14400, Note_on_c, 0, 77, 53
2, 14400, Note_on_c, 0, 80, 42
2, 14640, Note_on_c, 0, 73, 49
2, 14660, Note_on_c, 0, 77, 0
2, 14880, Note_on_c, 0, 68, 0
2, 14880, Note_on_c, 0, 80, 0
2, 14880, Note_on_c, 0, 72, 52
2, 14880, Note_on_c, 0, 80, 40
2, 14880, Note_on_c, 0, 68, 34
2, 14900, Note_on_c, 0, 73, 0
2, 15120, Note_on_c, 0, 75, 48
2, 15140, Note_on_c, 0, 72, 0
2, 15360, Note_on_c, 0, 68, 0
2, 15360, Note_on_c, 0, 80, 0
2, 15360, Note_on_c, 0, 75, 0
2, 15360, Note_on_c, 0, 68, 39
2, 15360, Note_on_c, 0, 73, 39
2, 15360, Note_on_c, 0, 80, 47
2, 15840, Note_on_c, 0, 80, 0
2, 15840, Note_on_c, 0, 73, 0
2, 15840, Note_on_c, 0, 80, 57
2, 15840, Note_on_c, 0, 72, 48
2, 15840, Note_on_c, 0, 75, 48
2, 16320, Note_on_c, 0, 75, 0
2, 16320, Note_on_c, 0, 68, 0
2, 16320, Note_on_c, 0, 80, 0
2, 16320, Note_on_c, 0, 72, 0
2, 16320, Note_on_c, 0, 68, 44
2, 16320, Note_on_c, 0, 71, 44
2, 16320, Note_on_c, 0, 77, 44
2, 16320, Note_on_c, 0, 80, 52
2, 16800, Note_on_c, 0, 80, 0
2, 16800, Note_on_c, 0, 68, 0
2, 16800, Note_on_c, 0, 71, 0
2, 16800, Note_on_c, 0, 77, 0
2, 16800, Note_on_c, 0, 81, 66
2, 16800, Note_on_c, 0, 78, 55
2, 16800, Note_on_c, 0, 69, 55
2, 17040, Note_on_c, 0, 71, 50
2, 17040, Note_on_c, 0, 75, 50
2, 17040, Note_on_c, 0, 83, 60
2, 17060, Note_on_c, 0, 69, 0
2, 17060, Note_on_c, 0, 81, 0
2, 17060, Note_on_c, 0, 78, 0
2, 17280, Note_on_c, 0, 75, 0
2, 17280, Note_on_c, 0, 76, 59
2, 17280, Note_on_c, 0, 73, 58
2, 17280, Note_on_c, 0, 85, 69
2, 17300, Note_on_c, 0, 83, 0
2, 17300, Note_on_c, 0, 71, 0
2, 17520, Note_on_c, 0, 81, 66
2, 17520, Note_on_c, 0, 69, 56
2, 17540, Note_on_c, 0, 73, 0
2, 17540, Note_on_c, 0, 85, 0
2, 17760, Note_on_c, 0, 76, 0
2, 17760, Note_on_c, 0, 74, 68
2, 17760, Note_on_c, 0, 68, 63
2, 17760, Note_on_c, 0, 80, 75
2, 17780, Note_on_c, 0, 81, 0
2, 17780, Note_on_c, 0, 69, 0
2, 18000, Note_on_c, 0, 83, 70
2, 18000, Note_on_c, 0, 71, 59
2, 18020, Note_on_c, 0, 68, 0
2, 18020, Note_on_c, 0, 80, 0
2, 18240, Note_on_c, 0, 83, 0
2, 18240, Note_on_c, 0, 74, 0
2, 18240, Note_on_c, 0, 71, 0
2, 18240, Note_on_c, 0, 82, 79
2, 18240, Note_on_c, 0, 70, 67
2, 18240, Note_on_c, 0, 79, 67
2, 18240, Note_on_c, 0, 73, 67
2, 18720, Note_on_c, 0, 73, 0
2, 18720, Note_on_c, 0, 82, 0
2, 18720, Note_on_c, 0, 70, 0
2, 18720, Note_on_c, 0, 79, 0
2, 18720, Note_on_c, 0, 72, 70
2, 18720, Note_on_c, 0, 79, 70
2, 18720, Note_on_c, 0, 84, 83
2, 19200, Note_on_c, 0, 84, 0
2, 19200, Note_on_c, 0, 79, 0
2, 19200, Note_on_c, 0, 72, 0
2, 19200, Note_on_c, 0, 73, 68
2, 19200, Note_on_c, 0, 79, 68
2, 19200, Note_on_c, 0, 85, 81
2, 19670, Note_on_c, 0, 85, 0
2, 19670, Note_on_c, 0, 79, 0
2, 19670, Note_on_c, 0, 73, 0
2, 19680, Note_on_c, 0, 67, 34
2, 19680, Note_on_c, 0, 64, 34
2, 19680, Note_on_c, 0, 70, 40
2, 20160, Note_on_c, 0, 70, 0
2, 20160, Note_on_c, 0, 64, 0
2, 20160, Note_on_c, 0, 67, 0
2, 20160, Note_on_c, 0, 64, 36
2, 20160, Note_on_c, 0, 67, 36
2, 20160, Note_on_c, 0, 72, 44
2, 20640, Note_on_c, 0, 72, 0
2, 20640, Note_on_c, 0, 67, 0
2, 20640, Note_on_c, 0, 64, 0
2, 20640, Note_on_c, 0, 73, 40
2, 20640, Note_on_c, 0, 67, 34
2, 20640, Note_on_c, 0, 64, 34
2, 21090, Note_on_c, 0, 64, 0
2, 21090, Note_on_c, 0, 67, 0
2, 21090, Note_on_c, 0, 73, 0
2, 21120, Note_on_c, 0, 64, 39
2, 21120, Note_on_c, 0, 68, 48
2, 21120, Note_on_c, 0, 56, 39
2, 21600, Note_on_c, 0, 56, 0
2, 21600, Note_on_c, 0, 68, 0
2, 21600, Note_on_c, 0, 64, 0
2, 21600, Note_on_c, 0, 57, 39
2, 21600, Note_on_c, 0, 68, 46
2, 21600, Note_on_c, 0, 64, 39
2, 22080, Note_on_c, 0, 64, 0
2, 22080, Note_on_c, 0, 68, 0
2, 22080, Note_on_c, 0, 57, 0
2, 22080, Note_on_c, 0, 66, 46
2, 22080, Note_on_c, 0, 58, 39
2, 22080, Note_on_c, 0, 64, 39
2, 22560, Note_on_c, 0, 64, 0
2, 22560, Note_on_c, 0, 58, 0
2, 22560, Note_on_c, 0, 66, 0
2, 22560, Note_on_c, 0, 58, 30
2, 22560, Note_on_c, 0, 65, 45
2, 22560, Note_on_c, 0, 64, 37
2, 22800, Note_on_c, 0, 65, 0
2, 22800, Note_on_c, 0, 66, 47
2, 23040, Note_on_c, 0, 66, 0
2, 23040, Note_on_c, 0, 64, 0
2, 23040, Note_on_c, 0, 58, 0
2, 23040, Note_on_c, 0, 69, 48
2, 23040, Note_on_c, 0, 63, 36
2, 23040, Note_on_c, 0, 57, 26
2, 23280, Note_on_c, 0, 69, 0
2, 23280, Note_on_c, 0, 66, 44
2, 23520, Note_on_c, 0, 66, 0
2, 23520, Note_on_c, 0, 57, 0
2, 23520, Note_on_c, 0, 63, 0
2, 23520, Note_on_c, 0, 57, 45
2, 23520, Note_on_c, 0, 64, 45
2, 23760, Note_on_c, 0, 64, 0
2, 23760, Note_on_c, 0, 63, 38
2, 23980, Note_on_c, 0, 63, 0
2, 23980, Note_on_c, 0, 57, 0
2, 24000, Note_on_c, 0, 73, 57
2, 24000, Note_on_c, 0, 61, 48
2, 24000, Note_on_c, 0, 69, 48
2, 24480, Note_on_c, 0, 69, 0
2, 24480, Note_on_c, 0, 61, 0
2, 24480, Note_on_c, 0, 73, 0
2, 24480, Note_on_c, 0, 69, 48
2, 24480, Note_on_c, 0, 73, 57
2, 24480, Note_on_c, 0, 62, 48
2, 24960, Note_on_c, 0, 62, 0
2, 24960, Note_on_c, 0, 73, 0
2, 24960, Note_on_c, 0, 69, 0
2, 24960, Note_on_c, 0, 71, 56
2, 24960, Note_on_c, 0, 69, 47
2, 24960, Note_on_c, 0, 63, 47
2, 25440, Note_on_c, 0, 63, 0
2, 25440, Note_on_c, 0, 69, 0
2, 25440, Note_on_c, 0, 71, 0
2, 25440, Note_on_c, 0, 71, 44
2, 25440, Note_on_c, 0, 68, 44
2, 25440, Note_on_c, 0, 64, 53
2, 25680, Note_on_c, 0, 65, 53
2, 25720, Note_on_c, 0, 64, 0
2, 25920, Note_on_c, 0, 71, 0
2, 25920, Note_on_c, 0, 68, 0
2, 25920, Note_on_c, 0, 65, 0
2, 25920, Note_on_c, 0, 68, 55
2, 25920, Note_on_c, 0, 71, 50
2, 26160, Note_on_c, 0, 68, 0
2, 26160, Note_on_c, 0, 66, 49
2, 26400, Note_on_c, 0, 66, 0
2, 26400, Note_on_c, 0, 71, 0
2, 26400, Note_on_c, 0, 69, 46
2, 26400, Note_on_c, 0, 61, 49
2, 26640, Note_on_c, 0, 61, 0
2, 26640, Note_on_c, 0, 57, 44
2, 26860, Note_on_c, 0, 57, 0
2, 26860, Note_on_c, 0, 69, 0
2, 26880, Note_on_c, 0, 68, 59
2, 26880, Note_on_c, 0, 74, 69
2, 26880, Note_on_c, 0, 62, 59
2, 27340, Note_on_c, 0, 62, 0
2, 27340, Note_on_c, 0, 74, 0
2, 27340, Note_on_c, 0, 68, 0
2, 27360, Note_on_c, 0, 63, 60
2, 27360, Note_on_c, 0, 74, 72
2, 27360, Note_on_c, 0, 69, 60
2, 27840, Note_on_c, 0, 69, 0
2, 27840, Note_on_c, 0, 74, 0
2, 27840, Note_on_c, 0, 63, 0
2, 27840, Note_on_c, 0, 69, 57
2, 27840, Note_on_c, 0, 72, 57
2, 27840, Note_on_c, 0, 63, 57
2, 28320, Note_on_c, 0, 63, 0
2, 28320, Note_on_c, 0, 72, 0
2, 28320, Note_on_c, 0, 69, 0
2, 28320, Note_on_c, 0, 75, 77
2, 28320, Note_on_c, 0, 60, 66
2, 28320, Note_on_c, 0, 69, 66
2, 28800, Note_on_c, 0, 69, 0
2, 28800, Note_on_c, 0, 60, 0
2, 28800, Note_on_c, 0, 75, 0
2, 28800, Note_on_c, 0, 74, 74
2, 28800, Note_on_c, 0, 62, 62
2, 28800, Note_on_c, 0, 69, 62
2, 29280, Note_on_c, 0, 69, 0
2, 29280, Note_on_c, 0, 62, 0
2, 29280, Note_on_c, 0, 74, 0
2, 29280, Note_on_c, 0, 72, 70
2, 29280, Note_on_c, 0, 69, 59
2, 29280, Note_on_c, 0, 63, 59
2, 29760, Note_on_c, 0, 63, 0
2, 29760, Note_on_c, 0, 69, 0
2, 29760, Note_on_c, 0, 72, 0
2, 29760, Note_on_c, 0, 51, 50
2, 29760, Note_on_c, 0, 63, 61
2, 29760, Note_on_c, 0, 57, 50
2, 30240, Note_on_c, 0, 63, 0
2, 30240, Note_on_c, 0, 51, 0
2, 30240, Note_on_c, 0, 50, 48
2, 30240, Note_on_c, 0, 62, 57
2, 30720, Note_on_c, 0, 62, 0
2, 30720, Note_on_c, 0, 50, 0
2, 30720, Note_on_c, 0, 57, 0
2, 30720, Note_on_c, 0, 57, 44
2, 30720, Note_on_c, 0, 51, 44
2, 30720, Note_on_c, 0, 63, 52
2, 31200, Note_on_c, 0, 63, 0
2, 31200, Note_on_c, 0, 51, 0
2, 31200, Note_on_c, 0, 57, 0
2, 31200, Note_on_c, 0, 52, 44
2, 31200, Note_on_c, 0, 55, 44
2, 31200, Note_on_c, 0, 64, 53
2, 31680, Note_on_c, 0, 64, 0
2, 31680, Note_on_c, 0, 55, 0
2, 31680, Note_on_c, 0, 52, 0
2, 31680, Note_on_c, 0, 54, 41
2, 31680, Note_on_c, 0, 63, 41
2, 31680, Note_on_c, 0, 66, 49
2, 32040, Note_on_c, 0, 66, 0
2, 32040, Note_on_c, 0, 63, 0
2, 32040, Note_on_c, 0, 54, 0
2, 32160, Note_on_c, 0, 56, 37
2, 32160, Note_on_c, 0, 59, 37
2, 32160, Note_on_c, 0, 68, 46
2, 32160, Note_on_c, 0, 64, 37
2, 33600, Note_on_c, 0, 64, 0
2, 33600, Note_on_c, 0, 56, 0
2, 33600, Note_on_c, 0, 59, 0
2, 33600, Note_on_c, 0, 68, 0
2, 33600, Note_on_c, 0, 59, 28
2, 33600, Note_on_c, 0, 68, 35
2, 33600, Note_on_c, 0, 56, 28
2, 35520, Note_on_c, 0, 56, 0
2, 35520, Note_on_c, 0, 68, 0
2, 35520, Note_on_c, 0, 59, 0
2, 35520, Note_on_c, 0, 75, 52
2, 35680, Note_on_c, 0, 71, 42
2, 35840, Note_on_c, 0, 71, 0
2, 35840, Note_on_c, 0, 68, 41
2, 36000, Note_on_c, 0, 68, 0
2, 36000, Note_on_c, 0, 75, 0
2, 36000, Note_on_c, 0, 73, 49
2, 36480, Note_on_c, 0, 73, 0
2, 36480, Note_on_c, 0, 71, 55
2, 36640, Note_on_c, 0, 68, 46
2, 36800, Note_on_c, 0, 68, 0
2, 36800, Note_on_c, 0, 64, 40
2, 36960, Note_on_c, 0, 64, 0
2, 36960, Note_on_c, 0, 71, 0
2, 36960, Note_on_c, 0, 70, 49
2, 37440, Note_on_c, 0, 70, 0
2, 37440, Note_on_c, 0, 68, 55
2, 37600, Note_on_c, 0, 64, 46
2, 37760, Note_on_c, 0, 64, 0
2, 37760, Note_on_c, 0, 61, 46
2, 37920, Note_on_c, 0, 61, 0
2, 37920, Note_on_c, 0, 68, 0
2, 37920, Note_on_c, 0, 71, 66
2, 38140, Note_on_c, 0, 71, 0
2, 38160, Note_on_c, 0, 70, 60
2, 38380, Note_on_c, 0, 70, 0
2, 38400, Note_on_c, 0, 68, 57
2, 38560, Note_on_c, 0, 64, 47
2, 38720, Note_on_c, 0, 64, 0
2, 38720, Note_on_c, 0, 61, 49
2, 38880, Note_on_c, 0, 61, 0
2, 38880, Note_on_c, 0, 68, 0
2, 38880, Note_on_c, 0, 71, 66
2, 39100, Note_on_c, 0, 71, 0
2, 39120, Note_on_c, 0, 70, 60
2, 39340, Note_on_c, 0, 70, 0
2, 39380, Note_on_c, 0, 68, 57
2, 39540, Note_on_c, 0, 64, 46
2, 39700, Note_on_c, 0, 64, 0
2, 39700, Note_on_c, 0, 61, 50
2, 39840, Note_on_c, 0, 73, 68
2, 39860, Note_on_c, 0, 61, 0
2, 39860, Note_on_c, 0, 68, 0
2, 40060, Note_on_c, 0, 73, 0
2, 40080, Note_on_c, 0, 71, 58
2, 40300, Note_on_c, 0, 71, 0
2, 40320, Note_on_c, 0, 70, 62
2, 40480, Note_on_c, 0, 67, 51
2, 40640, Note_on_c, 0, 67, 0
2, 40640, Note_on_c, 0, 63, 48
2, 40800, Note_on_c, 0, 63, 0
2, 40800, Note_on_c, 0, 70, 0
2, 40800, Note_on_c, 0, 76, 59
2, 41280, Note_on_c, 0, 76, 0
2, 41280, Note_on_c, 0, 75, 56
2, 41440, Note_on_c, 0, 70, 39
2, 41600, Note_on_c, 0, 70, 0
2, 41600, Note_on_c, 0, 67, 47
2, 41760, Note_on_c, 0, 67, 0
2, 41760, Note_on_c, 0, 75, 0
2, 41760, Note_on_c, 0, 73, 49
2, 42240, Note_on_c, 0, 73, 0
2, 42240, Note_on_c, 0, 71, 55
2, 42400, Note_on_c, 0, 68, 40
2, 42560, Note_on_c, 0, 68, 0
2, 42560, Note_on_c, 0, 64, 46
2, 42720, Note_on_c, 0, 64, 0
2, 42720, Note_on_c, 0, 71, 0
2, 42720, Note_on_c, 0, 70, 49
2, 43200, Note_on_c, 0, 70, 0
2, 43200, Note_on_c, 0, 68, 55
2, 43360, Note_on_c, 0, 64, 46
2, 43520, Note_on_c, 0, 64, 0
2, 43520, Note_on_c, 0, 61, 46
2, 43680, Note_on_c, 0, 61, 0
2, 43680, Note_on_c, 0, 68, 0
2, 43680, Note_on_c, 0, 71, 66
2, 43900, Note_on_c, 0, 71, 0
2, 43920, Note_on_c, 0, 70, 60
2, 44140, Note_on_c, 0, 70, 0
2, 44160, Note_on_c, 0, 64, 69
2, 44320, Note_on_c, 0, 61, 60
2, 44480, Note_on_c, 0, 58, 57
2, 44500, Note_on_c, 0, 61, 0
2, 44640, Note_on_c, 0, 58, 0
2, 44640, Note_on_c, 0, 64, 0
2, 44640, Note_on_c, 0, 68, 70
2, 44860, Note_on_c, 0, 68, 0
2, 44880, Note_on_c, 0, 66, 67
2, 45100, Note_on_c, 0, 66, 0
2, 45120, Note_on_c, 0, 61, 73
2, 45280, Note_on_c, 0, 58, 67
2, 45440, Note_on_c, 0, 58, 0
2, 45440, Note_on_c, 0, 54, 60
2, 45600, Note_on_c, 0, 54, 0
2, 45600, Note_on_c, 0, 61, 0
2, 45600, Note_on_c, 0, 63, 69
2, 46080, Note_on_c, 0, 63, 0
2, 46080, Note_on_c, 0, 64, 77
2, 46240, Note_on_c, 0, 61, 69
2, 46400, Note_on_c, 0, 61, 0
2, 46400, Note_on_c, 0, 58, 59
2, 46560, Note_on_c, 0, 58, 0
2, 47040, Note_on_c, 0, 64, 0
2, 47040, Note_on_c, 0, 63, 50
2, 47200, Note_on_c, 0, 67, 41
2, 47360, Note_on_c, 0, 67, 0
2, 47360, Note_on_c, 0, 70, 46
2, 47520, Note_on_c, 0, 70, 0
2, 47520, Note_on_c, 0, 63, 0
2, 47520, Note_on_c, 0, 61, 50
2, 48000, Note_on_c, 0, 61, 0
2, 48000, Note_on_c, 0, 59, 50
2, 48160, Note_on_c, 0, 63, 42
2, 48320, Note_on_c, 0, 63, 0
2, 48320, Note_on_c, 0, 68, 46
2, 48480, Note_on_c, 0, 68, 0
2, 48480, Note_on_c, 0, 59, 0
2, 48480, Note_on_c, 0, 58, 49
2, 48960, Note_on_c, 0, 58, 0
2, 48960, Note_on_c, 0, 56, 50
2, 49120, Note_on_c, 0, 59, 40
2, 49280, Note_on_c, 0, 64, 46
2, 49300, Note_on_c, 0, 59, 0
2, 49440, Note_on_c, 0, 64, 0
2, 49440, Note_on_c, 0, 56, 0
2, 49440, Note_on_c, 0, 59, 59
2, 49640, Note_on_c, 0, 59, 0
2, 49680, Note_on_c, 0, 58, 55
2, 49890, Note_on_c, 0, 58, 0
2, 49920, Note_on_c, 0, 56, 52
2, 50080, Note_on_c, 0, 61, 41
2, 50240, Note_on_c, 0, 64, 46
2, 50260, Note_on_c, 0, 61, 0
2, 50400, Note_on_c, 0, 64, 0
2, 50400, Note_on_c, 0, 56, 0
2, 50400, Note_on_c, 0, 59, 58
2, 50600, Note_on_c, 0, 59, 0
2, 50640, Note_on_c, 0, 58, 54
2, 50850, Note_on_c, 0, 58, 0
2, 50880, Note_on_c, 0, 56, 50
2, 51040, Note_on_c, 0, 59, 42
2, 51200, Note_on_c, 0, 59, 0
2, 51200, Note_on_c, 0, 64, 46
2, 51360, Note_on_c, 0, 64, 0
2, 51360, Note_on_c, 0, 56, 0
2, 51360, Note_on_c, 0, 61, 56
2, 51560, Note_on_c, 0, 61, 0
2, 51600, Note_on_c, 0, 59, 51
2, 51810, Note_on_c, 0, 59, 0
2, 51840, Note_on_c, 0, 58, 49
2, 52000, Note_on_c, 0, 63, 46
2, 52160, Note_on_c, 0, 63, 0
2, 52160, Note_on_c, 0, 67, 44
2, 52320, Note_on_c, 0, 67, 0
2, 52320, Note_on_c, 0, 58, 0
2, 52320, Note_on_c, 0, 76, 59
2, 52800, Note_on_c, 0, 76, 0
2, 52800, Note_on_c, 0, 75, 55
2, 52960, Note_on_c, 0, 70, 40
2, 53120, Note_on_c, 0, 70, 0
2, 53120, Note_on_c, 0, 67, 39
2, 53280, Note_on_c, 0, 67, 0
2, 53280, Note_on_c, 0, 75, 0
2, 53280, Note_on_c, 0, 73, 49
2, 53760, Note_on_c, 0, 73, 0
2, 53760, Note_on_c, 0, 71, 55
2, 53920, Note_on_c, 0, 68, 40
2, 54080, Note_on_c, 0, 68, 0
2, 54080, Note_on_c, 0, 64, 46
2, 54240, Note_on_c, 0, 64, 0
2, 54240, Note_on_c, 0, 71, 0
2, 54240, Note_on_c, 0, 70, 49
2, 54720, Note_on_c, 0, 70, 0
2, 54720, Note_on_c, 0, 68, 55
2, 54880, Note_on_c, 0, 64, 46
2, 55040, Note_on_c, 0, 64, 0
2, 55040, Note_on_c, 0, 61, 46
2, 55200, Note_on_c, 0, 61, 0
2, 55200, Note_on_c, 0, 68, 0
2, 55200, Note_on_c, 0, 58, 66
2, 55400, Note_on_c, 0, 58, 0
2, 55440, Note_on_c, 0, 59, 59
2, 55650, Note_on_c, 0, 59, 0
2, 55680, Note_on_c, 0, 61, 57
2, 55840, Note_on_c, 0, 64, 60
2, 56000, Note_on_c, 0, 64, 0
2, 56000, Note_on_c, 0, 68, 64
2, 56160, Note_on_c, 0, 68, 0
2, 56160, Note_on_c, 0, 61, 0
2, 56160, Note_on_c, 0, 71, 68
2, 56360, Note_on_c, 0, 71, 0
2, 56400, Note_on_c, 0, 70, 64
2, 56610, Note_on_c, 0, 70, 0
2, 56640, Note_on_c, 0, 68, 72
2, 56800, Note_on_c, 0, 64, 64
2, 56960, Note_on_c, 0, 64, 0
2, 56960, Note_on_c, 0, 61, 68
2, 57120, Note_on_c, 0, 61, 0
2, 57120, Note_on_c, 0, 68, 0
2, 57120, Note_on_c, 0, 56, 79
2, 57320, Note_on_c, 0, 56, 0
2, 57360, Note_on_c, 0, 58, 73
2, 57570, Note_on_c, 0, 58, 0
2, 57600, Note_on_c, 0, 59, 79
2, 57760, Note_on_c, 0, 65, 73
2, 57920, Note_on_c, 0, 65, 0
2, 57920, Note_on_c, 0, 68, 75
2, 58080, Note_on_c, 0, 68, 0
2, 58080, Note_on_c, 0, 59, 0
2, 58080, Note_on_c, 0, 71, 85
2, 58280, Note_on_c, 0, 71, 0
2, 58320, Note_on_c, 0, 70, 77
2, 58530, Note_on_c, 0, 70, 0
2, 58560, Note_on_c, 0, 68, 71
2, 58720, Note_on_c, 0, 65, 62
2, 58880, Note_on_c, 0, 65, 0
2, 58880, Note_on_c, 0, 59, 55
2, 59040, Note_on_c, 0, 59, 0
2, 59520, Note_on_c, 0, 63, 47
2, 59680, Note_on_c, 0, 63, 0
2, 59680, Note_on_c, 0, 59, 36
2, 59840, Note_on_c, 0, 59, 0
2, 59840, Note_on_c, 0, 56, 40
2, 60000, Note_on_c, 0, 56, 0
2, 60480, Note_on_c, 0, 61, 40
2, 60640, Note_on_c, 0, 61, 0
2, 60640, Note_on_c, 0, 58, 34
2, 60800, Note_on_c, 0, 58, 0
2, 60800, Note_on_c, 0, 56, 36
2, 61420, Note_on_c, 0, 56, 0
2, 61440, Note_on_c, 0, 68, 0
2, 61440, Note_on_c, 0, 68, 36
2, 61440, Note_on_c, 0, 71, 45
2, 61440, Note_on_c, 0, 59, 36
2, 61920, Note_on_c, 0, 59, 0
2, 61920, Note_on_c, 0, 71, 0
2, 61920, Note_on_c, 0, 68, 0
2, 61920, Note_on_c, 0, 71, 46
2, 61920, Note_on_c, 0, 60, 38
2, 61920, Note_on_c, 0, 68, 38
2, 62400, Note_on_c, 0, 68, 0
2, 62400, Note_on_c, 0, 60, 0
2, 62400, Note_on_c, 0, 71, 0
2, 62400, Note_on_c, 0, 61, 34
2, 62400, Note_on_c, 0, 69, 41
2, 62400, Note_on_c, 0, 66, 34
2, 62880, Note_on_c, 0, 66, 0
2, 62880, Note_on_c, 0, 69, 0
2, 62880, Note_on_c, 0, 61, 0
2, 62880, Note_on_c, 0, 69, 34
2, 62880, Note_on_c, 0, 62, 40
2, 62880, Note_on_c, 0, 66, 34
2, 63120, Note_on_c, 0, 62, 0
2, 63120, Note_on_c, 0, 63, 43
2, 63360, Note_on_c, 0, 63, 0
2, 63360, Note_on_c, 0, 66, 0
2, 63360, Note_on_c, 0, 69, 0
2, 63360, Note_on_c, 0, 66, 46
2, 63360, Note_on_c, 0, 69, 27
2, 63600, Note_on_c, 0, 66, 0
2, 63600, Note_on_c, 0, 64, 34
2, 63840, Note_on_c, 0, 64, 0
2, 63840, Note_on_c, 0, 69, 0
2, 63840, Note_on_c, 0, 68, 36
2, 63840, Note_on_c, 0, 59, 39
2, 64080, Note_on_c, 0, 59, 0
2, 64080, Note_on_c, 0, 56, 34
2, 64300, Note_on_c, 0, 56, 0
2, 64300, Note_on_c, 0, 68, 0
2, 64320, Note_on_c, 0, 56, 37
2, 64320, Note_on_c, 0, 64, 37
2, 64320, Note_on_c, 0, 68, 45
2, 64800, Note_on_c, 0, 68, 0
2, 64800, Note_on_c, 0, 64, 0
2, 64800, Note_on_c, 0, 56, 0
2, 64800, Note_on_c, 0, 57, 37
2, 64800, Note_on_c, 0, 68, 43
2, 64800, Note_on_c, 0, 64, 37
2, 65280, Note_on_c, 0, 64, 0
2, 65280, Note_on_c, 0, 68, 0
2, 65280, Note_on_c, 0, 57, 0
2, 65280, Note_on_c, 0, 66, 43
2, 65280, Note_on_c, 0, 64, 37
2, 65280, Note_on_c, 0, 58, 37
2, 65760, Note_on_c, 0, 58, 0
2, 65760, Note_on_c, 0, 64, 0
2, 65760, Note_on_c, 0, 66, 0
2, 65760, Note_on_c, 0, 64, 35
2, 65760, Note_on_c, 0, 58, 28
2, 65760, Note_on_c, 0, 65, 42
2, 66000, Note_on_c, 0, 65, 0
2, 66000, Note_on_c, 0, 66, 44
2, 66240, Note_on_c, 0, 66, 0
2, 66240, Note_on_c, 0, 58, 0
2, 66240, Note_on_c, 0, 64, 0
2, 66240, Note_on_c, 0, 69, 45
2, 66240, Note_on_c, 0, 57, 24
2, 66240, Note_on_c, 0, 63, 34
2, 66480, Note_on_c, 0, 69, 0
2, 66480, Note_on_c, 0, 66, 41
2, 66720, Note_on_c, 0, 66, 0
2, 66720, Note_on_c, 0, 63, 0
2, 66720, Note_on_c, 0, 57, 0
2, 66720, Note_on_c, 0, 57, 42
2, 66720, Note_on_c, 0, 64, 42
2, 66960, Note_on_c, 0, 64, 0
2, 66960, Note_on_c, 0, 63, 36
2, 67180, Note_on_c, 0, 63, 0
2, 67180, Note_on_c, 0, 57, 0
2, 67200, Note_on_c, 0, 69, 49
2, 67200, Note_on_c, 0, 73, 59
2, 67200, Note_on_c, 0, 61, 49
2, 67680, Note_on_c, 0, 61, 0
2, 67680, Note_on_c, 0, 73, 0
2, 67680, Note_on_c, 0, 69, 0
2, 67680, Note_on_c, 0, 73, 59
2, 67680, Note_on_c, 0, 62, 49
2, 67680, Note_on_c, 0, 69, 49
2, 68160, Note_on_c, 0, 69, 0
2, 68160, Note_on_c, 0, 62, 0
2, 68160, Note_on_c, 0, 73, 0
2, 68160, Note_on_c, 0, 71, 58
2, 68160, Note_on_c, 0, 63, 48
2, 68160, Note_on_c, 0, 69, 48
2, 68640, Note_on_c, 0, 69, 0
2, 68640, Note_on_c, 0, 63, 0
2, 68640, Note_on_c, 0, 71, 0
2, 68640, Note_on_c, 0, 64, 55
2, 68640, Note_on_c, 0, 68, 45
2, 68640, Note_on_c, 0, 71, 45
2, 68880, Note_on_c, 0, 65, 55
2, 68920, Note_on_c, 0, 64, 0
2, 69120, Note_on_c, 0, 68, 0
2, 69120, Note_on_c, 0, 71, 0
2, 69120, Note_on_c, 0, 65, 0
2, 69120, Note_on_c, 0, 71, 51
2, 69120, Note_on_c, 0, 68, 57
2, 69360, Note_on_c, 0, 68, 0
2, 69360, Note_on_c, 0, 66, 50
2, 69600, Note_on_c, 0, 66, 0
2, 69600, Note_on_c, 0, 71, 0
2, 69600, Note_on_c, 0, 69, 47
2, 69600, Note_on_c, 0, 61, 50
2, 69840, Note_on_c, 0, 61, 0
2, 69840, Note_on_c, 0, 57, 45
2, 70060, Note_on_c, 0, 57, 0
2, 70060, Note_on_c, 0, 69, 0
2, 70080, Note_on_c, 0, 62, 50
2, 70080, Note_on_c, 0, 68, 50
2, 70080, Note_on_c, 0, 74, 60
2, 70560, Note_on_c, 0, 74, 0
2, 70560, Note_on_c, 0, 68, 0
2, 70560, Note_on_c, 0, 62, 0
2, 70560, Note_on_c, 0, 63, 56
2, 70560, Note_on_c, 0, 74, 67
2, 70560, Note_on_c, 0, 69, 56
2, 71040, Note_on_c, 0, 69, 0
2, 71040, Note_on_c, 0, 74, 0
2, 71040, Note_on_c, 0, 63, 0
2, 71040, Note_on_c, 0, 69, 53
2, 71040, Note_on_c, 0, 63, 53
2, 71040, Note_on_c, 0, 72, 63
2, 71520, Note_on_c, 0, 72, 0
2, 71520, Note_on_c, 0, 63, 0
2, 71520, Note_on_c, 0, 69, 0
2, 71520, Note_on_c, 0, 71, 68
2, 71520, Note_on_c, 0, 62, 57
2, 71520, Note_on_c, 0, 68, 57
2, 71760, Note_on_c, 0, 71, 0
2, 71760, Note_on_c, 0, 72, 57
2, 72000, Note_on_c, 0, 72, 0
2, 72000, Note_on_c, 0, 68, 0
2, 72000, Note_on_c, 0, 62, 0
2, 72000, Note_on_c, 0, 69, 66
2, 72001, Note_on_c, 0, 75, 66
2, 72239, Note_on_c, 0, 72, 56
2, 72240, Note_on_c, 0, 69, 0
2, 72241, Note_on_c, 0, 75, 0
2, 72479, Note_on_c, 0, 72, 0
2, 72482, Note_on_c, 0, 70, 70
2, 72721, Note_on_c, 0, 69, 63
2, 72722, Note_on_c, 0, 70, 0
2, 72941, Note_on_c, 0, 69, 0
2, 72960, Note_on_c, 0, 69, 62
2, 72960, Note_on_c, 0, 75, 75
2, 72960, Note_on_c, 0, 60, 62
2, 73440, Note_on_c, 0, 60, 0
2, 73440, Note_on_c, 0, 75, 0
2, 73440, Note_on_c, 0, 69, 0
2, 73440, Note_on_c, 0, 62, 68
2, 73440, Note_on_c, 0, 74, 80
2, 73440, Note_on_c, 0, 69, 68
2, 73920, Note_on_c, 0, 69, 0
2, 73920, Note_on_c, 0, 74, 0
2, 73920, Note_on_c, 0, 62, 0
2, 73920, Note_on_c, 0, 72, 75
2, 73920, Note_on_c, 0, 69, 62
2, 73920, Note_on_c, 0, 63, 62
2, 74400, Note_on_c, 0, 63, 0
2, 74400, Note_on_c, 0, 69, 0
2, 74400, Note_on_c, 0, 72, 0
2, 74400, Note_on_c, 0, 62, 68
2, 74400, Note_on_c, 0, 68, 68
2, 74400, Note_on_c, 0, 71, 81
2, 74640, Note_on_c, 0, 71, 0
2, 74640, Note_on_c, 0, 72, 78
2, 74880, Note_on_c, 0, 72, 0
2, 74880, Note_on_c, 0, 68, 0
2, 74880, Note_on_c, 0, 62, 0
2, 74880, Note_on_c, 0, 69, 82
2, 74880, Note_on_c, 0, 79, 82
2, 75120, Note_on_c, 0, 69, 0
2, 75120, Note_on_c, 0, 75, 69
2, 75360, Note_on_c, 0, 75, 0
2, 75360, Note_on_c, 0, 74, 72
2, 75600, Note_on_c, 0, 72, 67
2, 75620, Note_on_c, 0, 74, 0
2, 75840, Note_on_c, 0, 71, 69
2, 75860, Note_on_c, 0, 72, 0
2, 76080, Note_on_c, 0, 72, 62
2, 76100, Note_on_c, 0, 71, 0
2, 76320, Note_on_c, 0, 72, 0
2, 76320, Note_on_c, 0, 79, 0
2, 76320, Note_on_c, 0, 77, 67
2, 76320, Note_on_c, 0, 75, 67
2, 76560, Note_on_c, 0, 75, 0
2, 76560, Note_on_c, 0, 72, 59
2, 76800, Note_on_c, 0, 77, 0
2, 76800, Note_on_c, 0, 70, 62
2, 76820, Note_on_c, 0, 72, 0
2, 77040, Note_on_c, 0, 69, 46
2, 77060, Note_on_c, 0, 70, 0
2, 77280, Note_on_c, 0, 67, 55
2, 77300, Note_on_c, 0, 69, 0
2, 77520, Note_on_c, 0, 65, 47
2, 77540, Note_on_c, 0, 67, 0
2, 77760, Note_on_c, 0, 63, 46
2, 77780, Note_on_c, 0, 65, 0
2, 78000, Note_on_c, 0, 60, 36
2, 78020, Note_on_c, 0, 63, 0
2, 78240, Note_on_c, 0, 58, 36
2, 78260, Note_on_c, 0, 60, 0
2, 78690, Note_on_c, 0, 58, 0
2, 78720, Note_on_c, 0, 57, 41
2, 78720, Note_on_c, 0, 63, 49
2, 79200, Note_on_c, 0, 63, 0
2, 79200, Note_on_c, 0, 62, 53
2, 79680, Note_on_c, 0, 62, 0
2, 79680, Note_on_c, 0, 57, 0
2, 79680, Note_on_c, 0, 63, 52
2, 79680, Note_on_c, 0, 57, 44
2, 80160, Note_on_c, 0, 57, 0
2, 80160, Note_on_c, 0, 63, 0
2, 80160, Note_on_c, 0, 64, 53
2, 80160, Note_on_c, 0, 55, 44
2, 80640, Note_on_c, 0, 55, 0
2, 80640, Note_on_c, 0, 64, 0
2, 80640, Note_on_c, 0, 66, 49
2, 80640, Note_on_c, 0, 63, 41
2, 80640, Note_on_c, 0, 54, 41
2, 81120, Note_on_c, 0, 54, 0
2, 81120, Note_on_c, 0, 63, 0
2, 81120, Note_on_c, 0, 66, 0
2, 81120, Note_on_c, 0, 64, 37
2, 81120, Note_on_c, 0, 68, 46
2, 81120, Note_on_c, 0, 59, 37
2, 81120, Note_on_c, 0, 56, 37
2, 82080, Note_on_c, 0, 56, 0
2, 82080, Note_on_c, 0, 64, 0
2, 82080, Note_on_c, 0, 68, 0
2, 82080, Note_on_c, 0, 59, 0
2, 82080, Note_on_c, 0, 68, 28
2, 82080, Note_on_c, 0, 71, 35
2, 82080, Note_on_c, 0, 59, 28
2, 83040, Note_on_c, 0, 59, 0
2, 83040, Note_on_c, 0, 71, 0
2, 83040, Note_on_c, 0, 68, 0
2, 83040, Note_on_c, 0, 76, 62
2, 83200, Note_on_c, 0, 69, 40
2, 83360, Note_on_c, 0, 69, 0
2, 83360, Note_on_c, 0, 64, 40
2, 83520, Note_on_c, 0, 64, 0
2, 83520, Note_on_c, 0, 76, 0
2, 83520, Note_on_c, 0, 75, 59
2, 83680, Note_on_c, 0, 69, 40
2, 83840, Note_on_c, 0, 69, 0
2, 83840, Note_on_c, 0, 65, 40
2, 84000, Note_on_c, 0, 65, 0
2, 84000, Note_on_c, 0, 75, 0
2, 84000, Note_on_c, 0, 73, 57
2, 84160, Note_on_c, 0, 69, 40
2, 84320, Note_on_c, 0, 69, 0
2, 84320, Note_on_c, 0, 66, 40
2, 84480, Note_on_c, 0, 66, 0
2, 84480, Note_on_c, 0, 73, 0
2, 84480, Note_on_c, 0, 71, 54
2, 84640, Note_on_c, 0, 68, 40
2, 84800, Note_on_c, 0, 68, 0
2, 84800, Note_on_c, 0, 65, 40
2, 84960, Note_on_c, 0, 65, 0
2, 84960, Note_on_c, 0, 71, 0
2, 84960, Note_on_c, 0, 69, 57
2, 84960, Note_on_c, 0, 66, 63
2, 85180, Note_on_c, 0, 66, 0
2, 85200, Note_on_c, 0, 64, 57
2, 85420, Note_on_c, 0, 64, 0
2, 85440, Note_on_c, 0, 69, 0
2, 85440, Note_on_c, 0, 73, 70
2, 85440, Note_on_c, 0, 63, 53
2, 85660, Note_on_c, 0, 73, 0
2, 85680, Note_on_c, 0, 71, 60
2, 85900, Note_on_c, 0, 71, 0
2, 85920, Note_on_c, 0, 63, 0
2, 85920, Note_on_c, 0, 61, 68
2, 85920, Note_on_c, 0, 64, 62
2, 86140, Note_on_c, 0, 61, 0
2, 86160, Note_on_c, 0, 59, 62
2, 86380, Note_on_c, 0, 59, 0
2, 86400, Note_on_c, 0, 64, 0
2, 86400, Note_on_c, 0, 57, 53
2, 86400, Note_on_c, 0, 69, 68
2, 86620, Note_on_c, 0, 69, 0
2, 86640, Note_on_c, 0, 68, 58
2, 86860, Note_on_c, 0, 68, 0
2, 86880, Note_on_c, 0, 57, 0
2, 86880, Note_on_c, 0, 61, 52
2, 87360, Note_on_c, 0, 61, 0
2, 87360, Note_on_c, 0, 68, 62
2, 87840, Note_on_c, 0, 61, 55
2, 88320, Note_on_c, 0, 61, 0
2, 88320, Note_on_c, 0, 59, 46
2, 88800, Note_on_c, 0, 68, 0
2, 88800, Note_on_c, 0, 66, 57
2, 89280, Note_on_c, 0, 57, 41
2, 90240, Note_on_c, 0, 57, 0
2, 90720, Note_on_c, 0, 66, 0
2, 90720, Note_on_c, 0, 59, 0
2, 90720, Note_on_c, 0, 64, 42
2, 90960, Note_on_c, 0, 68, 39
2, 91180, Note_on_c, 0, 68, 0
2, 91200, Note_on_c, 0, 71, 40
2, 91420, Note_on_c, 0, 71, 0
2, 91440, Note_on_c, 0, 76, 36
2, 91660, Note_on_c, 0, 76, 0
2, 91680, Note_on_c, 0, 64, 0
2, 91680, Note_on_c, 0, 80, 37
2, 91900, Note_on_c, 0, 80, 0
2, 91920, Note_on_c, 0, 83, 36
2, 92140, Note_on_c, 0, 83, 0
2, 92340, Note_on_c, 0, 71, 29
2, 92400, Note_on_c, 0, 76, 30
2, 92460, Note_on_c, 0, 80, 33
2, 92520, Note_on_c, 0, 83, 36
2, 92580, Note_on_c, 0, 88, 40
2, 93600, Note_on_c, 0, 88, 0
2, 93600, Note_on_c, 0, 80, 0
2, 93600, Note_on_c, 0, 71, 0
2, 93600, Note_on_c, 0, 76, 0
2, 93600, Note_on_c, 0, 83, 0
2, 93600, End_track
3, 0, Start_track
3, 0, Title_t, "Piano left"
3, 0, Program_c, 0, 0
3, 0, Control_c, 0, 7, 100
3, 0, Control_c, 0, 10, 64
3, 956, Control_c, 0, 91, 127
3, 960, Control_c, 0, 64, 127
3, 960, Note_on_c, 0, 28, 31
3, 960, Note_on_c, 0, 40, 44
3, 1440, Note_on_c, 0, 40, 0
3, 1440, Note_on_c, 0, 28, 0
3, 1440, Note_on_c, 0, 33, 28
3, 1440, Note_on_c, 0, 45, 41
3, 1446, Control_c, 0, 64, 0
3, 1589, Control_c, 0, 64, 127
3, 1920, Note_on_c, 0, 45, 0
3, 1920, Note_on_c, 0, 33, 0
3, 1920, Note_on_c, 0, 30, 26
3, 1920, Note_on_c, 0, 42, 46
3, 1931, Control_c, 0, 64, 0
3, 2034, Control_c, 0, 64, 127
3, 2400, Note_on_c, 0, 42, 0
3, 2400, Note_on_c, 0, 30, 0
3, 2400, Note_on_c, 0, 35, 28
3, 2400, Note_on_c, 0, 47, 39
3, 2417, Control_c, 0, 64, 0
3, 2526, Control_c, 0, 64, 127
3, 2880, Note_on_c, 0, 47, 0
3, 2880, Note_on_c, 0, 35, 0
3, 2880, Note_on_c, 0, 28, 26
3, 2880, Note_on_c, 0, 40, 37
3, 2892, Control_c, 0, 64, 0
3, 2993, Control_c, 0, 64, 127
3, 3360, Note_on_c, 0, 40, 0
3, 3360, Note_on_c, 0, 28, 0
3, 3360, Note_on_c, 0, 40, 23
3, 3360, Note_on_c, 0, 52, 34
3, 3378, Control_c, 0, 64, 0
3, 3516, Control_c, 0, 64, 127
3, 3820, Note_on_c, 0, 52, 0
3, 3820, Note_on_c, 0, 40, 0
3, 3840, Note_on_c, 0, 35, 27
3, 3840, Note_on_c, 0, 47, 39
3, 3856, Control_c, 0, 64, 0
3, 3981, Control_c, 0, 64, 127
3, 4320, Note_on_c, 0, 47, 0
3, 4320, Note_on_c, 0, 35, 0
3, 4320, Note_on_c, 0, 36, 27
3, 4320, Note_on_c, 0, 48, 39
3, 4326, Control_c, 0, 64, 0
3, 4434, Control_c, 0, 64, 127
3, 4800, Note_on_c, 0, 48, 0
3, 4800, Note_on_c, 0, 36, 0
3, 4800, Note_on_c, 0, 37, 27
3, 4800, Note_on_c, 0, 49, 39
3, 4820, Control_c, 0, 64, 0
3, 4960, Control_c, 0, 64, 127
3, 5280, Note_on_c, 0, 49, 0
3, 5280, Note_on_c, 0, 37, 0
3, 5280, Note_on_c, 0, 30, 25
3, 5280, Note_on_c, 0, 42, 36
3, 5296, Control_c, 0, 64, 0
3, 5440, Control_c, 0, 64, 127
3, 5760, Note_on_c, 0, 42, 0
3, 5760, Note_on_c, 0, 30, 0
3, 5760, Note_on_c, 0, 35, 29
3, 5778, Control_c, 0, 64, 0
3, 5887, Control_c, 0, 64, 127
3, 6240, Note_on_c, 0, 35, 0
3, 6240, Note_on_c, 0, 54, 23
3, 6240, Note_on_c, 0, 47, 21
3, 6247, Control_c, 0, 64, 0
3, 6367, Control_c, 0, 64, 127
3, 6700, Note_on_c, 0, 47, 0
3, 6700, Note_on_c, 0, 54, 0
3, 6720, Note_on_c, 0, 30, 34
3, 6720, Note_on_c, 0, 42, 41
3, 6731, Control_c, 0, 64, 0
3, 6890, Control_c, 0, 64, 127
3, 7200, Note_on_c, 0, 42, 0
3, 7200, Note_on_c, 0, 30, 0
3, 7200, Note_on_c, 0, 35, 34
3, 7200, Note_on_c, 0, 47, 40
3, 7214, Control_c, 0, 64, 0
3, 7349, Control_c, 0, 64, 127
3, 7680, Note_on_c, 0, 47, 0
3, 7680, Note_on_c, 0, 35, 0
3, 7680, Note_on_c, 0, 32, 34
3, 7680, Note_on_c, 0, 44, 40
3, 7698, Control_c, 0, 64, 0
3, 7783, Control_c, 0, 64, 127
3, 8160, Note_on_c, 0, 44, 0
3, 8160, Note_on_c, 0, 32, 0
3, 8160, Note_on_c, 0, 37, 34
3, 8160, Note_on_c, 0, 49, 41
3, 8174, Control_c, 0, 64, 0
3, 8240, Control_c, 0, 64, 127
3, 8640, Note_on_c, 0, 49, 0
3, 8640, Note_on_c, 0, 37, 0
3, 8640, Note_on_c, 0, 30, 29
3, 8640, Note_on_c, 0, 42, 35
3, 8649, Control_c, 0, 64, 0
3, 8767, Control_c, 0, 64, 127
3, 9120, Note_on_c, 0, 42, 0
3, 9120, Note_on_c, 0, 30, 0
3, 9120, Note_on_c, 0, 42, 22
3, 9120, Note_on_c, 0, 54, 29
3, 9137, Control_c, 0, 64, 0
3, 9247, Control_c, 0, 64, 127
3, 9580, Note_on_c, 0, 54, 0
3, 9580, Note_on_c, 0, 42, 0
3, 9600, Note_on_c, 0, 38, 30
3, 9600, Note_on_c, 0, 50, 36
3, 9613, Control_c, 0, 64, 0
3, 9826, Control_c, 0, 64, 127
3, 10080, Note_on_c, 0, 50, 0
3, 10080, Note_on_c, 0, 38, 0
3, 10080, Control_c, 0, 64, 0
3, 10080, Note_on_c, 0, 39, 30
3, 10080, Note_on_c, 0, 51, 36
3, 10246, Control_c, 0, 64, 127
3, 10560, Note_on_c, 0, 51, 0
3, 10560, Note_on_c, 0, 39, 0
3, 10560, Note_on_c, 0, 40, 31
3, 10560, Note_on_c, 0, 52, 37
3, 10576, Control_c, 0, 64, 0
3, 10792, Control_c, 0, 64, 127
3, 11040, Note_on_c, 0, 52, 0
3, 11040, Note_on_c, 0, 40, 0
3, 11040, Note_on_c, 0, 37, 34
3, 11040, Note_on_c, 0, 49, 41
3, 11055, Control_c, 0, 64, 0
3, 11255, Control_c, 0, 64, 127
3, 11520, Note_on_c, 0, 49, 0
3, 11520, Note_on_c, 0, 37, 0
3, 11520, Note_on_c, 0, 32, 30
3, 11520, Note_on_c, 0, 44, 36
3, 11524, Control_c, 0, 64, 0
3, 11680, Control_c, 0, 64, 127
3, 12000, Note_on_c, 0, 44, 0
3, 12000, Note_on_c, 0, 32, 0
3, 12000, Note_on_c, 0, 25, 30
3, 12000, Note_on_c, 0, 37, 36
3, 12019, Control_c, 0, 64, 0
3, 12229, Control_c, 0, 64, 127
3, 12450, Note_on_c, 0, 37, 0
3, 12450, Note_on_c, 0, 25, 0
3, 12480, Note_on_c, 0, 65, 34
3, 12480, Note_on_c, 0, 61, 34
3, 12496, Control_c, 0, 64, 0
3, 12709, Control_c, 0, 64, 127
3, 12960, Note_on_c, 0, 61, 0
3, 12960, Note_on_c, 0, 65, 0
3, 12960, Note_on_c, 0, 56, 42
3, 12960, Note_on_c, 0, 63, 36
3, 12964, Control_c, 0, 64, 0
3, 13057, Control_c, 0, 64, 127
3, 13440, Note_on_c, 0, 63, 0
3, 13440, Note_on_c, 0, 56, 0
3, 13440, Note_on_c, 0, 49, 35
3, 13440, Note_on_c, 0, 61, 35
3, 13451, Control_c, 0, 64, 0
3, 13577, Control_c, 0, 64, 127
3, 13920, Note_on_c, 0, 61, 0
3, 13920, Note_on_c, 0, 49, 0
3, 13920, Note_on_c, 0, 42, 38
3, 13939, Control_c, 0, 64, 0
3, 14029, Control_c, 0, 64, 127
3, 14080, Note_on_c, 0, 54, 31
3, 14100, Note_on_c, 0, 42, 0
3, 14240, Note_on_c, 0, 58, 29
3, 14260, Note_on_c, 0, 54, 0
3, 14400, Note_on_c, 0, 58, 0
3, 14400, Note_on_c, 0, 44, 38
3, 14409, Control_c, 0, 64, 0
3, 14486, Control_c, 0, 64, 127
3, 14560, Note_on_c, 0, 56, 33
3, 14580, Note_on_c, 0, 44, 0
3, 14720, Note_on_c, 0, 65, 30
3, 14740, Note_on_c, 0, 56, 0
3, 14880, Note_on_c, 0, 65, 0
3, 14880, Note_on_c, 0, 56, 42
3, 14880, Note_on_c, 0, 66, 42
3, 14899, Control_c, 0, 64, 0
3, 14971, Control_c, 0, 64, 127
3, 15040, Note_on_c, 0, 63, 33
3, 15060, Note_on_c, 0, 66, 0
3, 15060, Note_on_c, 0, 56, 0
3, 15200, Note_on_c, 0, 56, 40
3, 15220, Note_on_c, 0, 63, 0
3, 15360, Note_on_c, 0, 56, 0
3, 15360, Note_on_c, 0, 65, 30
3, 15360, Note_on_c, 0, 61, 30
3, 15379, Control_c, 0, 64, 0
3, 15451, Control_c, 0, 64, 127
3, 15840, Note_on_c, 0, 61, 0
3, 15840, Note_on_c, 0, 65, 0
3, 15840, Note_on_c, 0, 56, 46
3, 15840, Note_on_c, 0, 63, 46
3, 15856, Control_c, 0, 64, 0
3, 15967, Control_c, 0, 64, 127
3, 16320, Note_on_c, 0, 63, 0
3, 16320, Note_on_c, 0, 56, 0
3, 16320, Note_on_c, 0, 49, 41
3, 16320, Note_on_c, 0, 61, 41
3, 16338, Control_c, 0, 64, 0
3, 16482, Control_c, 0, 64, 127
3, 16800, Note_on_c, 0, 61, 0
3, 16800, Note_on_c, 0, 49, 0
3, 16800, Note_on_c, 0, 42, 42
3, 16815, Control_c, 0, 64, 0
3, 16927, Control_c, 0, 64, 127
3, 16960, Note_on_c, 0, 54, 37
3, 16980, Note_on_c, 0, 42, 0
3, 17120, Note_on_c, 0, 57, 39
3, 17140, Note_on_c, 0, 54, 0
3, 17280, Note_on_c, 0, 57, 0
3, 17280, Note_on_c, 0, 40, 47
3, 17288, Control_c, 0, 64, 0
3, 17365, Control_c, 0, 64, 127
3, 17440, Note_on_c, 0, 52, 39
3, 17460, Note_on_c, 0, 40, 0
3, 17600, Note_on_c, 0, 61, 39
3, 17620, Note_on_c, 0, 52, 0
3, 17760, Note_on_c, 0, 61, 0
3, 17760, Note_on_c, 0, 52, 49
3, 17772, Control_c, 0, 64, 0
3, 17852, Control_c, 0, 64, 127
3, 17920, Note_on_c, 0, 59, 42
3, 18080, Note_on_c, 0, 59, 0
3, 18080, Note_on_c, 0, 62, 42
3, 18240, Note_on_c, 0, 62, 0
3, 18240, Note_on_c, 0, 52, 0
3, 18240, Note_on_c, 0, 52, 52
3, 18240, Note_on_c, 0, 55, 52
3, 18240, Note_on_c, 0, 61, 52
3, 18259, Control_c, 0, 64, 0
3, 18381, Control_c, 0, 64, 127
3, 18720, Note_on_c, 0, 61, 0
3, 18720, Note_on_c, 0, 55, 0
3, 18720, Note_on_c, 0, 52, 0
3, 18720, Note_on_c, 0, 52, 59
3, 18720, Note_on_c, 0, 55, 59
3, 18720, Note_on_c, 0, 60, 59
3, 18728, Control_c, 0, 64, 0
3, 18869, Control_c, 0, 64, 127
3, 19200, Note_on_c, 0, 60, 0
3, 19200, Note_on_c, 0, 55, 0
3, 19200, Note_on_c, 0, 52, 0
3, 19200, Note_on_c, 0, 52, 59
3, 19200, Note_on_c, 0, 55, 59
3, 19200, Note_on_c, 0, 58, 59
3, 19213, Control_c, 0, 64, 0
3, 19415, Control_c, 0, 64, 127
3, 19670, Note_on_c, 0, 58, 0
3, 19670, Note_on_c, 0, 55, 0
3, 19670, Note_on_c, 0, 52, 0
3, 19680, Note_on_c, 0, 49, 34
3, 19680, Note_on_c, 0, 52, 34
3, 19680, Note_on_c, 0, 55, 34
3, 19697, Control_c, 0, 64, 0
3, 19929, Control_c, 0, 64, 127
3, 20160, Note_on_c, 0, 55, 0
3, 20160, Note_on_c, 0, 52, 0
3, 20160, Note_on_c, 0, 49, 0
3, 20160, Note_on_c, 0, 48, 37
3, 20160, Note_on_c, 0, 52, 37
3, 20160, Note_on_c, 0, 55, 37
3, 20169, Control_c, 0, 64, 0
3, 20375, Control_c, 0, 64, 127
3, 20640, Note_on_c, 0, 55, 0
3, 20640, Note_on_c, 0, 52, 0
3, 20640, Note_on_c, 0, 48, 0
3, 20640, Note_on_c, 0, 46, 34
3, 20640, Note_on_c, 0, 55, 34
3, 20640, Note_on_c, 0, 52, 34
3, 20657, Control_c, 0, 64, 0
3, 20889, Control_c, 0, 64, 127
3, 21090, Note_on_c, 0, 52, 0
3, 21090, Note_on_c, 0, 55, 0
3, 21090, Note_on_c, 0, 46, 0
3, 21120, Note_on_c, 0, 47, 39
3, 21120, Note_on_c, 0, 35, 27
3, 21136, Control_c, 0, 64, 0
3, 21418, Control_c, 0, 64, 127
3, 21600, Note_on_c, 0, 35, 0
3, 21600, Note_on_c, 0, 47, 0
3, 21600, Note_on_c, 0, 48, 39
3, 21600, Note_on_c, 0, 36, 27
3, 21607, Control_c, 0, 64, 0
3, 21714, Control_c, 0, 64, 127
3, 22080, Note_on_c, 0, 36, 0
3, 22080, Note_on_c, 0, 48, 0
3, 22080, Note_on_c, 0, 37, 27
3, 22080, Note_on_c, 0, 49, 39
3, 22100, Control_c, 0, 64, 0
3, 22240, Control_c, 0, 64, 127
3, 22560, Note_on_c, 0, 49, 0
3, 22560, Note_on_c, 0, 37, 0
3, 22560, Note_on_c, 0, 42, 36
3, 22560, Note_on_c, 0, 30, 25
3, 22576, Control_c, 0, 64, 0
3, 22720, Control_c, 0, 64, 127
3, 23040, Note_on_c, 0, 30, 0
3, 23040, Note_on_c, 0, 42, 0
3, 23040, Note_on_c, 0, 35, 29
3, 23058, Control_c, 0, 64, 0
3, 23153, Control_c, 0, 64, 127
3, 23520, Note_on_c, 0, 35, 0
3, 23520, Note_on_c, 0, 47, 21
3, 23520, Note_on_c, 0, 54, 23
3, 23538, Control_c, 0, 64, 0
3, 23661, Control_c, 0, 64, 127
3, 23980, Note_on_c, 0, 54, 0
3, 23980, Note_on_c, 0, 47, 0
3, 24000, Note_on_c, 0, 30, 34
3, 24000, Note_on_c, 0, 42, 41
3, 24018, Control_c, 0, 64, 0
3, 24283, Control_c, 0, 64, 127
3, 24480, Note_on_c, 0, 42, 0
3, 24480, Note_on_c, 0, 30, 0
3, 24480, Note_on_c, 0, 35, 34
3, 24480, Note_on_c, 0, 47, 40
3, 24488, Control_c, 0, 64, 0
3, 24629, Control_c, 0, 64, 127
3, 24960, Note_on_c, 0, 47, 0
3, 24960, Note_on_c, 0, 35, 0
3, 24960, Note_on_c, 0, 44, 40
3, 24960, Note_on_c, 0, 32, 34
3, 24979, Control_c, 0, 64, 0
3, 25063, Control_c, 0, 64, 127
3, 25440, Note_on_c, 0, 32, 0
3, 25440, Note_on_c, 0, 44, 0
3, 25440, Note_on_c, 0, 37, 34
3, 25440, Note_on_c, 0, 49, 41
3, 25458, Control_c, 0, 64, 0
3, 25564, Control_c, 0, 64, 127
3, 25920, Note_on_c, 0, 49, 0
3, 25920, Note_on_c, 0, 37, 0
3, 25920, Note_on_c, 0, 30, 29
3, 25920, Note_on_c, 0, 42, 35
3, 25927, Control_c, 0, 64, 0
3, 26104, Control_c, 0, 64, 127
3, 26400, Note_on_c, 0, 42, 0
3, 26400, Note_on_c, 0, 30, 0
3, 26400, Note_on_c, 0, 54, 29
3, 26400, Note_on_c, 0, 42, 22
3, 26419, Control_c, 0, 64, 0
3, 26541, Control_c, 0, 64, 127
3, 26860, Note_on_c, 0, 42, 0
3, 26860, Note_on_c, 0, 54, 0
3, 26880, Note_on_c, 0, 28, 50
3, 26880, Note_on_c, 0, 40, 59
3, 26895, Control_c, 0, 64, 0
3, 27092, Control_c, 0, 64, 127
3, 27340, Note_on_c, 0, 40, 0
3, 27340, Note_on_c, 0, 28, 0
3, 27360, Note_on_c, 0, 29, 51
3, 27360, Note_on_c, 0, 41, 60
3, 27374, Control_c, 0, 64, 0
3, 27566, Control_c, 0, 64, 127
3, 27840, Note_on_c, 0, 41, 0
3, 27840, Note_on_c, 0, 29, 0
3, 27840, Note_on_c, 0, 53, 57
3, 27840, Note_on_c, 0, 41, 48
3, 27858, Control_c, 0, 64, 0
3, 28115, Control_c, 0, 64, 127
3, 28320, Note_on_c, 0, 41, 0
3, 28320, Note_on_c, 0, 53, 0
3, 28320, Note_on_c, 0, 42, 61
3, 28320, Note_on_c, 0, 30, 51
3, 28339, Control_c, 0, 64, 0
3, 28571, Control_c, 0, 64, 127
3, 28800, Note_on_c, 0, 30, 0
3, 28800, Note_on_c, 0, 42, 0
3, 28800, Note_on_c, 0, 42, 50
3, 28800, Note_on_c, 0, 54, 59
3, 28807, Control_c, 0, 64, 0
3, 29075, Control_c, 0, 64, 127
3, 29280, Note_on_c, 0, 54, 0
3, 29280, Note_on_c, 0, 42, 0
3, 29280, Note_on_c, 0, 29, 46
3, 29280, Note_on_c, 0, 41, 55
3, 29299, Control_c, 0, 64, 0
3, 29532, Control_c, 0, 64, 127
3, 29760, Note_on_c, 0, 41, 0
3, 29760, Note_on_c, 0, 29, 0
3, 29760, Note_on_c, 0, 41, 39
3, 29760, Note_on_c, 0, 48, 47
3, 29779, Control_c, 0, 64, 0
3, 30012, Control_c, 0, 64, 127
3, 30240, Note_on_c, 0, 41, 0
3, 30240, Note_on_c, 0, 42, 35
3, 30246, Control_c, 0, 64, 0
3, 30446, Control_c, 0, 64, 127
3, 30720, Note_on_c, 0, 42, 0
3, 30720, Note_on_c, 0, 48, 0
3, 30720, Note_on_c, 0, 43, 41
3, 30720, Note_on_c, 0, 47, 41
3, 30739, Control_c, 0, 64, 0
3, 30926, Control_c, 0, 64, 127
3, 31200, Note_on_c, 0, 43, 0
3, 31200, Note_on_c, 0, 40, 42
3, 31218, Control_c, 0, 64, 0
3, 31474, Control_c, 0, 64, 127
3, 31680, Note_on_c, 0, 40, 0
3, 31680, Note_on_c, 0, 47, 0
3, 31680, Note_on_c, 0, 47, 39
3, 31680, Note_on_c, 0, 35, 33
3, 31696, Control_c, 0, 64, 0
3, 31740, Control_c, 0, 64, 127
3, 32040, Note_on_c, 0, 35, 0
3, 32040, Note_on_c, 0, 47, 0
3, 32040, Note_on_c, 0, 28, 36
3, 32045, Control_c, 0, 64, 0
3, 32100, Note_on_c, 0, 40, 41
3, 32132, Control_c, 0, 64, 127
3, 32160, Note_on_c, 0, 47, 36
3, 33120, Note_on_c, 0, 28, 0
3, 33600, Note_on_c, 0, 47, 0
3, 33600, Note_on_c, 0, 40, 0
3, 33600, Note_on_c, 0, 51, 26
3, 33600, Note_on_c, 0, 39, 26
3, 33600, Note_on_c, 0, 47, 26
3, 33620, Control_c, 0, 64, 0
3, 34240, Control_c, 0, 64, 127
3, 35520, Note_on_c, 0, 47, 0
3, 35520, Note_on_c, 0, 39, 0
3, 35520, Note_on_c, 0, 51, 0
3, 35520, Control_c, 0, 64, 0
3, 35626, Control_c, 0, 64, 127
3, 36000, Note_on_c, 0, 63, 41
3, 36007, Control_c, 0, 64, 0
3, 36078, Control_c, 0, 64, 127
3, 36160, Note_on_c, 0, 63, 0
3, 36160, Note_on_c, 0, 59, 27
3, 36320, Note_on_c, 0, 59, 0
3, 36320, Note_on_c, 0, 56, 33
3, 36480, Note_on_c, 0, 56, 0
3, 36488, Control_c, 0, 64, 0
3, 36551, Control_c, 0, 64, 127
3, 36960, Note_on_c, 0, 59, 40
3, 36974, Control_c, 0, 64, 0
3, 37073, Control_c, 0, 64, 127
3, 37120, Note_on_c, 0, 59, 0
3, 37120, Note_on_c, 0, 56, 28
3, 37280, Note_on_c, 0, 56, 0
3, 37280, Note_on_c, 0, 52, 34
3, 37440, Note_on_c, 0, 52, 0
3, 37446, Control_c, 0, 64, 0
3, 37546, Control_c, 0, 64, 127
3, 37920, Note_on_c, 0, 56, 44
3, 37928, Control_c, 0, 64, 0
3, 38019, Control_c, 0, 64, 127
3, 38080, Note_on_c, 0, 56, 0
3, 38080, Note_on_c, 0, 52, 30
3, 38240, Note_on_c, 0, 52, 0
3, 38240, Note_on_c, 0, 49, 35
3, 38400, Note_on_c, 0, 49, 0
3, 38407, Control_c, 0, 64, 0
3, 38492, Control_c, 0, 64, 127
3, 38880, Note_on_c, 0, 56, 44
3, 38889, Control_c, 0, 64, 0
3, 38943, Control_c, 0, 64, 127
3, 39040, Note_on_c, 0, 56, 0
3, 39040, Note_on_c, 0, 52, 33
3, 39200, Note_on_c, 0, 52, 0
3, 39200, Note_on_c, 0, 49, 35
3, 39360, Note_on_c, 0, 49, 0
3, 39377, Control_c, 0, 64, 0
3, 39423, Control_c, 0, 64, 127
3, 39840, Note_on_c, 0, 58, 48
3, 39859, Control_c, 0, 64, 0
3, 39931, Control_c, 0, 64, 127
3, 40000, Note_on_c, 0, 58, 0
3, 40000, Note_on_c, 0, 55, 40
3, 40160, Note_on_c, 0, 55, 0
3, 40160, Note_on_c, 0, 51, 36
3, 40320, Note_on_c, 0, 51, 0
3, 40330, Control_c, 0, 64, 0
3, 40377, Control_c, 0, 64, 127
3, 40800, Note_on_c, 0, 61, 40
3, 40809, Control_c, 0, 64, 0
3, 40875, Control_c, 0, 64, 127
3, 40960, Note_on_c, 0, 61, 0
3, 40960, Note_on_c, 0, 58, 27
3, 41120, Note_on_c, 0, 58, 0
3, 41120, Note_on_c, 0, 55, 33
3, 41280, Note_on_c, 0, 55, 0
3, 41280, Note_on_c, 0, 51, 38
3, 41294, Control_c, 0, 64, 0
3, 41355, Control_c, 0, 64, 127
3, 41520, Note_on_c, 0, 51, 0
3, 41760, Note_on_c, 0, 63, 41
3, 41769, Control_c, 0, 64, 0
3, 41859, Control_c, 0, 64, 127
3, 41920, Note_on_c, 0, 63, 0
3, 41920, Note_on_c, 0, 59, 28
3, 42080, Note_on_c, 0, 59, 0
3, 42080, Note_on_c, 0, 56, 33
3, 42240, Note_on_c, 0, 56, 0
3, 42257, Control_c, 0, 64, 0
3, 42374, Control_c, 0, 64, 127
3, 42720, Note_on_c, 0, 59, 40
3, 42738, Control_c, 0, 64, 0
3, 42826, Control_c, 0, 64, 127
3, 42880, Note_on_c, 0, 59, 0
3, 42880, Note_on_c, 0, 56, 29
3, 43040, Note_on_c, 0, 56, 0
3, 43040, Note_on_c, 0, 52, 30
3, 43200, Note_on_c, 0, 52, 0
3, 43207, Control_c, 0, 64, 0
3, 43299, Control_c, 0, 64, 127
3, 43680, Note_on_c, 0, 56, 44
3, 43695, Control_c, 0, 64, 0
3, 43758, Control_c, 0, 64, 127
3, 43840, Note_on_c, 0, 56, 0
3, 43840, Note_on_c, 0, 52, 33
3, 44000, Note_on_c, 0, 52, 0
3, 44000, Note_on_c, 0, 49, 35
3, 44160, Note_on_c, 0, 49, 0
3, 44178, Control_c, 0, 64, 0
3, 44266, Control_c, 0, 64, 127
3, 44640, Note_on_c, 0, 52, 48
3, 44647, Control_c, 0, 64, 0
3, 44725, Control_c, 0, 64, 127
3, 44800, Note_on_c, 0, 52, 0
3, 44800, Note_on_c, 0, 49, 34
3, 44960, Note_on_c, 0, 49, 0
3, 44960, Note_on_c, 0, 46, 40
3, 45120, Note_on_c, 0, 46, 0
3, 45134, Control_c, 0, 64, 0
3, 45226, Control_c, 0, 64, 127
3, 45600, Note_on_c, 0, 49, 61
3, 45610, Control_c, 0, 64, 0
3, 45692, Control_c, 0, 64, 127
3, 45760, Note_on_c, 0, 49, 0
3, 45760, Note_on_c, 0, 46, 59
3, 45920, Note_on_c, 0, 46, 0
3, 45920, Note_on_c, 0, 42, 54
3, 46080, Note_on_c, 0, 42, 0
3, 46089, Control_c, 0, 64, 0
3, 46189, Control_c, 0, 64, 127
3, 46560, Note_on_c, 0, 49, 62
3, 46720, Note_on_c, 0, 49, 0
3, 46720, Note_on_c, 0, 46, 56
3, 46880, Note_on_c, 0, 46, 0
3, 46880, Note_on_c, 0, 43, 51
3, 47040, Note_on_c, 0, 43, 0
3, 47040, Note_on_c, 0, 39, 41
3, 47049, Control_c, 0, 64, 0
3, 47172, Control_c, 0, 64, 127
3, 47280, Note_on_c, 0, 39, 0
3, 47520, Note_on_c, 0, 44, 37
3, 47529, Control_c, 0, 64, 0
3, 47626, Control_c, 0, 64, 127
3, 47680, Note_on_c, 0, 44, 0
3, 47680, Note_on_c, 0, 51, 29
3, 47840, Note_on_c, 0, 51, 0
3, 47840, Note_on_c, 0, 56, 35
3, 48000, Note_on_c, 0, 56, 0
3, 48018, Control_c, 0, 64, 0
3, 48113, Control_c, 0, 64, 127
3, 48480, Note_on_c, 0, 40, 41
3, 48497, Control_c, 0, 64, 0
3, 48621, Control_c, 0, 64, 127
3, 48640, Note_on_c, 0, 40, 0
3, 48640, Note_on_c, 0, 47, 36
3, 48800, Note_on_c, 0, 47, 0
3, 48800, Note_on_c, 0, 52, 39
3, 48960, Note_on_c, 0, 52, 0
3, 48968, Control_c, 0, 64, 0
3, 49041, Control_c, 0, 64, 127
3, 49440, Note_on_c, 0, 37, 46
3, 49458, Control_c, 0, 64, 0
3, 49600, Note_on_c, 0, 37, 0
3, 49600, Note_on_c, 0, 44, 40
3, 49760, Note_on_c, 0, 44, 0
3, 49760, Note_on_c, 0, 52, 34
3, 49920, Note_on_c, 0, 52, 0
3, 49973, Control_c, 0, 64, 127
3, 50400, Note_on_c, 0, 37, 46
3, 50404, Control_c, 0, 64, 0
3, 50560, Note_on_c, 0, 37, 0
3, 50560, Note_on_c, 0, 44, 40
3, 50720, Note_on_c, 0, 44, 0
3, 50720, Note_on_c, 0, 52, 34
3, 50880, Note_on_c, 0, 52, 0
3, 50929, Control_c, 0, 64, 127
3, 51360, Note_on_c, 0, 39, 44
3, 51374, Control_c, 0, 64, 0
3, 51520, Note_on_c, 0, 39, 0
3, 51520, Note_on_c, 0, 46, 40
3, 51680, Note_on_c, 0, 46, 0
3, 51680, Note_on_c, 0, 55, 34
3, 51840, Note_on_c, 0, 55, 0
3, 51909, Control_c, 0, 64, 127
3, 52320, Note_on_c, 0, 61, 40
3, 52329, Control_c, 0, 64, 0
3, 52417, Control_c, 0, 64, 127
3, 52480, Note_on_c, 0, 61, 0
3, 52480, Note_on_c, 0, 58, 28
3, 52640, Note_on_c, 0, 58, 0
3, 52640, Note_on_c, 0, 55, 33
3, 52800, Note_on_c, 0, 55, 0
3, 52800, Note_on_c, 0, 51, 33
3, 52812, Control_c, 0, 64, 0
3, 52926, Control_c, 0, 64, 127
3, 53040, Note_on_c, 0, 51, 0
3, 53280, Note_on_c, 0, 63, 41
3, 53286, Control_c, 0, 64, 0
3, 53344, Control_c, 0, 64, 127
3, 53440, Note_on_c, 0, 63, 0
3, 53440, Note_on_c, 0, 59, 29
3, 53600, Note_on_c, 0, 59, 0
3, 53600, Note_on_c, 0, 56, 33
3, 53760, Note_on_c, 0, 56, 0
3, 53776, Control_c, 0, 64, 0
3, 53873, Control_c, 0, 64, 127
3, 54240, Note_on_c, 0, 59, 40
3, 54251, Control_c, 0, 64, 0
3, 54325, Control_c, 0, 64, 127
3, 54400, Note_on_c, 0, 59, 0
3, 54400, Note_on_c, 0, 56, 29
3, 54560, Note_on_c, 0, 56, 0
3, 54560, Note_on_c, 0, 52, 34
3, 54720, Note_on_c, 0, 52, 0
3, 54733, Control_c, 0, 64, 0
3, 54798, Control_c, 0, 64, 127
3, 55200, Note_on_c, 0, 37, 46
3, 55210, Control_c, 0, 64, 0
3, 55256, Control_c, 0, 64, 127
3, 55360, Note_on_c, 0, 37, 0
3, 55360, Note_on_c, 0, 44, 30
3, 55520, Note_on_c, 0, 44, 0
3, 55520, Note_on_c, 0, 52, 36
3, 55680, Note_on_c, 0, 52, 0
3, 55695, Control_c, 0, 64, 0
3, 55768, Control_c, 0, 64, 127
3, 56160, Note_on_c, 0, 56, 51
3, 56164, Control_c, 0, 64, 0
3, 56206, Control_c, 0, 64, 127
3, 56320, Note_on_c, 0, 56, 0
3, 56320, Note_on_c, 0, 52, 42
3, 56480, Note_on_c, 0, 52, 0
3, 56480, Note_on_c, 0, 49, 48
3, 56640, Note_on_c, 0, 49, 0
3, 56658, Control_c, 0, 64, 0
3, 56732, Control_c, 0, 64, 127
3, 57120, Note_on_c, 0, 38, 52
3, 57133, Control_c, 0, 64, 0
3, 57208, Control_c, 0, 64, 127
3, 57280, Note_on_c, 0, 38, 0
3, 57280, Note_on_c, 0, 44, 39
3, 57440, Note_on_c, 0, 44, 0
3, 57440, Note_on_c, 0, 53, 45
3, 57600, Note_on_c, 0, 53, 0
3, 57615, Control_c, 0, 64, 0
3, 57692, Control_c, 0, 64, 127
3, 58080, Note_on_c, 0, 56, 66
3, 58094, Control_c, 0, 64, 0
3, 58151, Control_c, 0, 64, 127
3, 58240, Note_on_c, 0, 56, 0
3, 58240, Note_on_c, 0, 53, 48
3, 58400, Note_on_c, 0, 53, 0
3, 58400, Note_on_c, 0, 50, 55
3, 58560, Note_on_c, 0, 50, 0
3, 58579, Control_c, 0, 64, 0
3, 58659, Control_c, 0, 64, 127
3, 59040, Note_on_c, 0, 39, 52
3, 59051, Control_c, 0, 64, 0
3, 59181, Control_c, 0, 64, 127
3, 59200, Note_on_c, 0, 39, 0
3, 59200, Note_on_c, 0, 47, 37
3, 59360, Note_on_c, 0, 47, 0
3, 59360, Note_on_c, 0, 51, 42
3, 59520, Note_on_c, 0, 51, 0
3, 59538, Control_c, 0, 64, 0
3, 59633, Control_c, 0, 64, 127
3, 60000, Note_on_c, 0, 39, 40
3, 60014, Control_c, 0, 64, 0
3, 60134, Control_c, 0, 64, 127
3, 60160, Note_on_c, 0, 39, 0
3, 60160, Note_on_c, 0, 49, 28
3, 60320, Note_on_c, 0, 49, 0
3, 60320, Note_on_c, 0, 51, 34
3, 60480, Note_on_c, 0, 51, 0
3, 60492, Control_c, 0, 64, 0
3, 60522, Control_c, 0, 64, 127
3, 60900, Note_on_c, 0, 32, 34
3, 60918, Control_c, 0, 64, 0
3, 60953, Control_c, 0, 64, 127
3, 60960, Note_on_c, 0, 44, 34
3, 61420, Note_on_c, 0, 44, 0
3, 61420, Note_on_c, 0, 32, 0
3, 61440, Note_on_c, 0, 40, 41
3, 61440, Note_on_c, 0, 28, 29
3, 61458, Control_c, 0, 64, 0
3, 61539, Control_c, 0, 64, 127
3, 61920, Note_on_c, 0, 28, 0
3, 61920, Note_on_c, 0, 40, 0
3, 61920, Note_on_c, 0, 33, 26
3, 61920, Note_on_c, 0, 45, 38
3, 61929, Control_c, 0, 64, 0
3, 62103, Control_c, 0, 64, 127
3, 62400, Note_on_c, 0, 45, 0
3, 62400, Note_on_c, 0, 33, 0
3, 62400, Note_on_c, 0, 30, 24
3, 62400, Note_on_c, 0, 42, 43
3, 62411, Control_c, 0, 64, 0
3, 62629, Control_c, 0, 64, 127
3, 62880, Note_on_c, 0, 42, 0
3, 62880, Note_on_c, 0, 30, 0
3, 62880, Note_on_c, 0, 47, 37
3, 62880, Note_on_c, 0, 35, 26
3, 62897, Control_c, 0, 64, 0
3, 63040, Control_c, 0, 64, 127
3, 63360, Note_on_c, 0, 35, 0
3, 63360, Note_on_c, 0, 47, 0
3, 63360, Note_on_c, 0, 28, 24
3, 63360, Note_on_c, 0, 40, 35
3, 63372, Control_c, 0, 64, 0
3, 63544, Control_c, 0, 64, 127
3, 63840, Note_on_c, 0, 40, 0
3, 63840, Note_on_c, 0, 28, 0
3, 63840, Note_on_c, 0, 52, 32
3, 63840, Note_on_c, 0, 40, 21
3, 63855, Control_c, 0, 64, 0
3, 63996, Control_c, 0, 64, 127
3, 64300, Note_on_c, 0, 40, 0
3, 64300, Note_on_c, 0, 52, 0
3, 64320, Note_on_c, 0, 47, 37
3, 64320, Note_on_c, 0, 35, 25
3, 64337, Control_c, 0, 64, 0
3, 64518, Control_c, 0, 64, 127
3, 64800, Note_on_c, 0, 35, 0
3, 64800, Note_on_c, 0, 47, 0
3, 64800, Note_on_c, 0, 48, 37
3, 64800, Note_on_c, 0, 36, 25
3, 64810, Control_c, 0, 64, 0
3, 64983, Control_c, 0, 64, 127
3, 65280, Note_on_c, 0, 36, 0
3, 65280, Note_on_c, 0, 48, 0
3, 65280, Note_on_c, 0, 37, 25
3, 65280, Note_on_c, 0, 49, 37
3, 65300, Control_c, 0, 64, 0
3, 65509, Control_c, 0, 64, 127
3, 65760, Note_on_c, 0, 49, 0
3, 65760, Note_on_c, 0, 37, 0
3, 65760, Note_on_c, 0, 30, 23
3, 65760, Note_on_c, 0, 42, 34
3, 65776, Control_c, 0, 64, 0
3, 65920, Control_c, 0, 64, 127
3, 66240, Note_on_c, 0, 42, 0
3, 66240, Note_on_c, 0, 30, 0
3, 66240, Note_on_c, 0, 35, 27
3, 66258, Control_c, 0, 64, 0
3, 66396, Control_c, 0, 64, 127
3, 66720, Note_on_c, 0, 35, 0
3, 66720, Note_on_c, 0, 47, 19
3, 66720, Note_on_c, 0, 54, 21
3, 66733, Control_c, 0, 64, 0
3, 66819, Control_c, 0, 64, 127
3, 67180, Note_on_c, 0, 54, 0
3, 67180, Note_on_c, 0, 47, 0
3, 67200, Note_on_c, 0, 42, 41
3, 67200, Note_on_c, 0, 30, 35
3, 67216, Control_c, 0, 64, 0
3, 67398, Control_c, 0, 64, 127
3, 67680, Note_on_c, 0, 30, 0
3, 67680, Note_on_c, 0, 42, 0
3, 67680, Note_on_c, 0, 35, 35
3, 67680, Note_on_c, 0, 47, 41
3, 67694, Control_c, 0, 64, 0
3, 67829, Control_c, 0, 64, 127
3, 68160, Note_on_c, 0, 47, 0
3, 68160, Note_on_c, 0, 35, 0
3, 68160, Note_on_c, 0, 32, 35
3, 68160, Note_on_c, 0, 44, 41
3, 68181, Control_c, 0, 64, 0
3, 68287, Control_c, 0, 64, 127
3, 68640, Note_on_c, 0, 44, 0
3, 68640, Note_on_c, 0, 32, 0
3, 68640, Note_on_c, 0, 37, 35
3, 68640, Note_on_c, 0, 49, 41
3, 68655, Control_c, 0, 64, 0
3, 68720, Control_c, 0, 64, 127
3, 69120, Note_on_c, 0, 49, 0
3, 69120, Note_on_c, 0, 37, 0
3, 69120, Note_on_c, 0, 42, 36
3, 69120, Note_on_c, 0, 30, 29
3, 69131, Control_c, 0, 64, 0
3, 69261, Control_c, 0, 64, 127
3, 69600, Note_on_c, 0, 30, 0
3, 69600, Note_on_c, 0, 42, 0
3, 69600, Note_on_c, 0, 42, 22
3, 69600, Note_on_c, 0, 54, 29
3, 69618, Control_c, 0, 64, 0
3, 69741, Control_c, 0, 64, 127
3, 70060, Note_on_c, 0, 54, 0
3, 70060, Note_on_c, 0, 42, 0
3, 70080, Note_on_c, 0, 28, 55
3, 70080, Note_on_c, 0, 40, 55
3, 70094, Control_c, 0, 64, 0
3, 70264, Control_c, 0, 64, 127
3, 70560, Note_on_c, 0, 40, 0
3, 70560, Note_on_c, 0, 28, 0
3, 70560, Note_on_c, 0, 29, 52
3, 70560, Note_on_c, 0, 41, 52
3, 70568, Control_c, 0, 64, 0
3, 70766, Control_c, 0, 64, 127
3, 71040, Note_on_c, 0, 41, 0
3, 71040, Note_on_c, 0, 29, 0
3, 71040, Note_on_c, 0, 41, 53
3, 71040, Note_on_c, 0, 53, 53
3, 71057, Control_c, 0, 64, 0
3, 71177, Control_c, 0, 64, 127
3, 71520, Note_on_c, 0, 53, 0
3, 71520, Note_on_c, 0, 41, 0
3, 71520, Note_on_c, 0, 29, 56
3, 71520, Note_on_c, 0, 41, 47
3, 71537, Control_c, 0, 64, 0
3, 71669, Control_c, 0, 64, 127
3, 72000, Note_on_c, 0, 41, 0
3, 72000, Note_on_c, 0, 29, 0
3, 72000, Note_on_c, 0, 53, 59
3, 72000, Note_on_c, 0, 60, 59
3, 72011, Control_c, 0, 64, 0
3, 72160, Control_c, 0, 64, 127
3, 72240, Note_on_c, 0, 60, 0
3, 72240, Note_on_c, 0, 57, 53
3, 72480, Note_on_c, 0, 57, 0
3, 72483, Note_on_c, 0, 55, 57
3, 72497, Control_c, 0, 64, 0
3, 72572, Control_c, 0, 64, 127
3, 72722, Note_on_c, 0, 53, 49
3, 72723, Note_on_c, 0, 55, 0
3, 72942, Note_on_c, 0, 53, 0
3, 72960, Note_on_c, 0, 53, 0
3, 72960, Note_on_c, 0, 41, 64
3, 72960, Note_on_c, 0, 29, 64
3, 72974, Control_c, 0, 64, 0
3, 73074, Control_c, 0, 64, 127
3, 73440, Note_on_c, 0, 29, 0
3, 73440, Note_on_c, 0, 41, 0
3, 73440, Note_on_c, 0, 30, 69
3, 73440, Note_on_c, 0, 42, 69
3, 73451, Control_c, 0, 64, 0
3, 73623, Control_c, 0, 64, 127
3, 73920, Note_on_c, 0, 42, 0
3, 73920, Note_on_c, 0, 30, 0
3, 73920, Note_on_c, 0, 42, 58
3, 73920, Note_on_c, 0, 54, 69
3, 73940, Control_c, 0, 64, 0
3, 74126, Control_c, 0, 64, 127
3, 74400, Note_on_c, 0, 54, 0
3, 74400, Note_on_c, 0, 42, 0
3, 74400, Note_on_c, 0, 41, 69
3, 74400, Note_on_c, 0, 29, 69
3, 74419, Control_c, 0, 64, 0
3, 74606, Control_c, 0, 64, 127
3, 74880, Note_on_c, 0, 29, 0
3, 74880, Note_on_c, 0, 41, 0
3, 74880, Note_on_c, 0, 63, 70
3, 74880, Note_on_c, 0, 53, 70
3, 74887, Control_c, 0, 64, 0
3, 74983, Control_c, 0, 64, 127
3, 75120, Note_on_c, 0, 63, 0
3, 75120, Note_on_c, 0, 60, 59
3, 75360, Note_on_c, 0, 58, 63
3, 75376, Control_c, 0, 64, 0
3, 75380, Note_on_c, 0, 60, 0
3, 75509, Control_c, 0, 64, 127
3, 75600, Note_on_c, 0, 57, 59
3, 75620, Note_on_c, 0, 58, 0
3, 75840, Note_on_c, 0, 56, 55
3, 75856, Control_c, 0, 64, 0
3, 75860, Note_on_c, 0, 57, 0
3, 76000, Control_c, 0, 64, 127
3, 76080, Note_on_c, 0, 57, 49
3, 76100, Note_on_c, 0, 56, 0
3, 76320, Note_on_c, 0, 57, 0
3, 76320, Note_on_c, 0, 60, 53
3, 76330, Control_c, 0, 64, 0
3, 76446, Control_c, 0, 64, 127
3, 76560, Note_on_c, 0, 60, 0
3, 76560, Note_on_c, 0, 57, 47
3, 76800, Note_on_c, 0, 53, 0
3, 76800, Note_on_c, 0, 55, 52
3, 76811, Control_c, 0, 64, 0
3, 76820, Note_on_c, 0, 57, 0
3, 76915, Control_c, 0, 64, 127
3, 77040, Note_on_c, 0, 53, 37
3, 77060, Note_on_c, 0, 55, 0
3, 77280, Note_on_c, 0, 51, 44
3, 77295, Control_c, 0, 64, 0
3, 77300, Note_on_c, 0, 53, 0
3, 77440, Control_c, 0, 64, 127
3, 77520, Note_on_c, 0, 50, 37
3, 77540, Note_on_c, 0, 51, 0
3, 77760, Note_on_c, 0, 48, 36
3, 77771, Control_c, 0, 64, 0
3, 77780, Note_on_c, 0, 50, 0
3, 77875, Control_c, 0, 64, 127
3, 78000, Note_on_c, 0, 45, 30
3, 78020, Note_on_c, 0, 48, 0
3, 78240, Note_on_c, 0, 43, 30
3, 78254, Control_c, 0, 64, 0
3, 78260, Note_on_c, 0, 45, 0
3, 78366, Control_c, 0, 64, 127
3, 78690, Note_on_c, 0, 43, 0
3, 78720, Note_on_c, 0, 48, 47
3, 78720, Note_on_c, 0, 41, 39
3, 78736, Control_c, 0, 64, 0
3, 78915, Control_c, 0, 64, 127
3, 79200, Note_on_c, 0, 41, 0
3, 79200, Note_on_c, 0, 42, 42
3, 79209, Control_c, 0, 64, 0
3, 79429, Control_c, 0, 64, 127
3, 79680, Note_on_c, 0, 42, 0
3, 79680, Note_on_c, 0, 48, 0
3, 79680, Note_on_c, 0, 47, 49
3, 79680, Note_on_c, 0, 43, 41
3, 79697, Control_c, 0, 64, 0
3, 79955, Control_c, 0, 64, 127
3, 80160, Note_on_c, 0, 43, 0
3, 80160, Note_on_c, 0, 40, 42
3, 80179, Control_c, 0, 64, 0
3, 80412, Control_c, 0, 64, 127
3, 80640, Note_on_c, 0, 40, 0
3, 80640, Note_on_c, 0, 47, 0
3, 80640, Note_on_c, 0, 47, 47
3, 80640, Note_on_c, 0, 35, 39
3, 80651, Control_c, 0, 64, 0
3, 80960, Control_c, 0, 64, 127
3, 81120, Note_on_c, 0, 35, 0
3, 81120, Note_on_c, 0, 47, 0
3, 81120, Note_on_c, 0, 40, 36
3, 81120, Note_on_c, 0, 47, 44
3, 81138, Control_c, 0, 64, 0
3, 81520, Control_c, 0, 64, 127
3, 82080, Note_on_c, 0, 47, 0
3, 82080, Note_on_c, 0, 40, 0
3, 82080, Note_on_c, 0, 51, 30
3, 82080, Note_on_c, 0, 39, 26
3, 82089, Control_c, 0, 64, 0
3, 82200, Control_c, 0, 64, 127
3, 83040, Note_on_c, 0, 39, 0
3, 83040, Note_on_c, 0, 51, 0
3, 83040, Note_on_c, 0, 37, 46
3, 83054, Control_c, 0, 64, 0
3, 83174, Control_c, 0, 64, 127
3, 83200, Note_on_c, 0, 37, 0
3, 83200, Note_on_c, 0, 52, 35
3, 83360, Note_on_c, 0, 52, 0
3, 83360, Note_on_c, 0, 57, 39
3, 83520, Note_on_c, 0, 49, 39
3, 83520, Note_on_c, 0, 53, 39
3, 83528, Control_c, 0, 64, 0
3, 83640, Control_c, 0, 64, 127
3, 84000, Note_on_c, 0, 53, 0
3, 84000, Note_on_c, 0, 49, 0
3, 84000, Note_on_c, 0, 57, 0
3, 84000, Note_on_c, 0, 33, 47
3, 84017, Control_c, 0, 64, 0
3, 84127, Control_c, 0, 64, 127
3, 84160, Note_on_c, 0, 33, 0
3, 84160, Note_on_c, 0, 49, 35
3, 84320, Note_on_c, 0, 49, 0
3, 84320, Note_on_c, 0, 54, 40
3, 84480, Note_on_c, 0, 54, 0
3, 84480, Note_on_c, 0, 50, 46
3, 84480, Note_on_c, 0, 45, 39
3, 84499, Control_c, 0, 64, 0
3, 84600, Control_c, 0, 64, 127
3, 84960, Note_on_c, 0, 45, 0
3, 84960, Note_on_c, 0, 50, 0
3, 84960, Note_on_c, 0, 35, 49
3, 84967, Control_c, 0, 64, 0
3, 85027, Control_c, 0, 64, 127
3, 85120, Note_on_c, 0, 35, 0
3, 85120, Note_on_c, 0, 51, 38
3, 85280, Note_on_c, 0, 51, 0
3, 85280, Note_on_c, 0, 54, 42
3, 85440, Note_on_c, 0, 54, 0
3, 85440, Note_on_c, 0, 47, 39
3, 85440, Note_on_c, 0, 57, 48
3, 85451, Control_c, 0, 64, 0
3, 85514, Control_c, 0, 64, 127
3, 85920, Note_on_c, 0, 57, 0
3, 85920, Note_on_c, 0, 47, 0
3, 85920, Note_on_c, 0, 35, 50
3, 85927, Control_c, 0, 64, 0
3, 85994, Control_c, 0, 64, 127
3, 86080, Note_on_c, 0, 35, 0
3, 86080, Note_on_c, 0, 49, 40
3, 86240, Note_on_c, 0, 49, 0
3, 86240, Note_on_c, 0, 52, 42
3, 86340, Note_on_c, 0, 52, 0
3, 86340, Note_on_c, 0, 47, 50
3, 86400, Note_on_c, 0, 61, 50
3, 86407, Control_c, 0, 64, 0
3, 86520, Control_c, 0, 64, 127
3, 86880, Note_on_c, 0, 61, 0
3, 86880, Note_on_c, 0, 47, 0
3, 86880, Note_on_c, 0, 35, 55
3, 86880, Note_on_c, 0, 56, 60
3, 86891, Control_c, 0, 64, 0
3, 86972, Control_c, 0, 64, 127
3, 87040, Note_on_c, 0, 35, 0
3, 87040, Note_on_c, 0, 45, 46
3, 87100, Note_on_c, 0, 56, 0
3, 87120, Note_on_c, 0, 54, 50
3, 87200, Note_on_c, 0, 45, 0
3, 87200, Note_on_c, 0, 49, 46
3, 87340, Note_on_c, 0, 54, 0
3, 87360, Note_on_c, 0, 49, 0
3, 87360, Note_on_c, 0, 52, 55
3, 87360, Note_on_c, 0, 47, 50
3, 87372, Control_c, 0, 64, 0
3, 87452, Control_c, 0, 64, 127
3, 87600, Note_on_c, 0, 57, 49
3, 88320, Note_on_c, 0, 52, 0
3, 88320, Note_on_c, 0, 51, 48
3, 88337, Control_c, 0, 64, 0
3, 88694, Control_c, 0, 64, 127
3, 89270, Note_on_c, 0, 57, 0
3, 89280, Note_on_c, 0, 51, 0
3, 89280, Note_on_c, 0, 47, 0
3, 89280, Note_on_c, 0, 28, 37
3, 89285, Control_c, 0, 64, 0
3, 89464, Control_c, 0, 64, 127
3, 89500, Note_on_c, 0, 28, 0
3, 89520, Note_on_c, 0, 40, 29
3, 89740, Note_on_c, 0, 40, 0
3, 89760, Note_on_c, 0, 47, 34
3, 89980, Note_on_c, 0, 47, 0
3, 90000, Note_on_c, 0, 52, 30
3, 90220, Note_on_c, 0, 52, 0
3, 90240, Note_on_c, 0, 56, 36
3, 90480, Note_on_c, 0, 59, 33
3, 90720, Note_on_c, 0, 52, 30
3, 91680, Note_on_c, 0, 52, 0
3, 91680, Note_on_c, 0, 59, 0
3, 91680, Note_on_c, 0, 56, 0
3, 91680, Note_on_c, 0, 28, 27
3, 92160, Note_on_c, 0, 28, 0
3, 92160, Note_on_c, 0, 40, 29
3, 92220, Note_on_c, 0, 47, 29
3, 92280, Note_on_c, 0, 56, 29
3, 93600, Note_on_c, 0, 56, 0
3, 93600, Note_on_c, 0, 47, 0
3, 93600, Note_on_c, 0, 40, 0
3, 94587, Control_c, 0, 64, 0
3, 94587, End_track
4, 0, Start_track
4, 0, Title_t, "Fantasie No. 6 in E-Dur Op. 116"
4, 0, End_track
5, 0, Start_track
5, 0, Title_t, "Copyright © 1999 by Bernd Krüger"
5, 0, End_track
6, 0, Start_track
6, 0, Title_t, "http://www.piano-midi.de"
6, 0, End_track
7, 0, Start_track
7, 0, Title_t, "Edition: 2010-10-31"
7, 0, End_track
8, 0, Start_track
8, 0, Title_t, "Spur 7"
8, 0, End_track
0, 0, End_of_file
